<?xml version="1.0" encoding="utf-8" standalone="no"?>
<!DOCTYPE svg PUBLIC "-//W3C//DTD SVG 1.1//EN"
  "http://www.w3.org/Graphics/SVG/1.1/DTD/svg11.dtd">
<!-- Created with matplotlib (https://matplotlib.org/) -->
<svg height="345.6pt" version="1.1" viewBox="0 0 460.8 345.6" width="460.8pt" xmlns="http://www.w3.org/2000/svg" xmlns:xlink="http://www.w3.org/1999/xlink">
 <defs>
  <style type="text/css">
*{stroke-linecap:butt;stroke-linejoin:round;}
  </style>
 </defs>
 <g id="figure_1">
  <g id="patch_1">
   <path d="M 0 345.6 
L 460.8 345.6 
L 460.8 0 
L 0 0 
z
" style="fill:#ffffff;"/>
  </g>
  <g id="axes_1">
   <g id="patch_2">
    <path d="M 57.6 307.584 
L 414.72 307.584 
L 414.72 41.472 
L 57.6 41.472 
z
" style="fill:#ffffff;"/>
   </g>
   <g id="matplotlib.axis_1">
    <g id="xtick_1">
     <g id="line2d_1">
      <defs>
       <path d="M 0 0 
L 0 3.5 
" id="m5305191826" style="stroke:#000000;stroke-width:0.8;"/>
      </defs>
      <g>
       <use style="stroke:#000000;stroke-width:0.8;" x="57.810036" xlink:href="#m5305191826" y="307.584"/>
      </g>
     </g>
     <g id="text_1">
      <!-- 0.0 -->
      <defs>
       <path d="M 31.78125 66.40625 
Q 24.171875 66.40625 20.328125 58.90625 
Q 16.5 51.421875 16.5 36.375 
Q 16.5 21.390625 20.328125 13.890625 
Q 24.171875 6.390625 31.78125 6.390625 
Q 39.453125 6.390625 43.28125 13.890625 
Q 47.125 21.390625 47.125 36.375 
Q 47.125 51.421875 43.28125 58.90625 
Q 39.453125 66.40625 31.78125 66.40625 
z
M 31.78125 74.21875 
Q 44.046875 74.21875 50.515625 64.515625 
Q 56.984375 54.828125 56.984375 36.375 
Q 56.984375 17.96875 50.515625 8.265625 
Q 44.046875 -1.421875 31.78125 -1.421875 
Q 19.53125 -1.421875 13.0625 8.265625 
Q 6.59375 17.96875 6.59375 36.375 
Q 6.59375 54.828125 13.0625 64.515625 
Q 19.53125 74.21875 31.78125 74.21875 
z
" id="DejaVuSans-48"/>
       <path d="M 10.6875 12.40625 
L 21 12.40625 
L 21 0 
L 10.6875 0 
z
" id="DejaVuSans-46"/>
      </defs>
      <g transform="translate(49.858474 322.182437)scale(0.1 -0.1)">
       <use xlink:href="#DejaVuSans-48"/>
       <use x="63.623047" xlink:href="#DejaVuSans-46"/>
       <use x="95.410156" xlink:href="#DejaVuSans-48"/>
      </g>
     </g>
    </g>
    <g id="xtick_2">
     <g id="line2d_2">
      <g>
       <use style="stroke:#000000;stroke-width:0.8;" x="127.601018" xlink:href="#m5305191826" y="307.584"/>
      </g>
     </g>
     <g id="text_2">
      <!-- 0.2 -->
      <defs>
       <path d="M 19.1875 8.296875 
L 53.609375 8.296875 
L 53.609375 0 
L 7.328125 0 
L 7.328125 8.296875 
Q 12.9375 14.109375 22.625 23.890625 
Q 32.328125 33.6875 34.8125 36.53125 
Q 39.546875 41.84375 41.421875 45.53125 
Q 43.3125 49.21875 43.3125 52.78125 
Q 43.3125 58.59375 39.234375 62.25 
Q 35.15625 65.921875 28.609375 65.921875 
Q 23.96875 65.921875 18.8125 64.3125 
Q 13.671875 62.703125 7.8125 59.421875 
L 7.8125 69.390625 
Q 13.765625 71.78125 18.9375 73 
Q 24.125 74.21875 28.421875 74.21875 
Q 39.75 74.21875 46.484375 68.546875 
Q 53.21875 62.890625 53.21875 53.421875 
Q 53.21875 48.921875 51.53125 44.890625 
Q 49.859375 40.875 45.40625 35.40625 
Q 44.1875 33.984375 37.640625 27.21875 
Q 31.109375 20.453125 19.1875 8.296875 
z
" id="DejaVuSans-50"/>
      </defs>
      <g transform="translate(119.649456 322.182437)scale(0.1 -0.1)">
       <use xlink:href="#DejaVuSans-48"/>
       <use x="63.623047" xlink:href="#DejaVuSans-46"/>
       <use x="95.410156" xlink:href="#DejaVuSans-50"/>
      </g>
     </g>
    </g>
    <g id="xtick_3">
     <g id="line2d_3">
      <g>
       <use style="stroke:#000000;stroke-width:0.8;" x="197.392001" xlink:href="#m5305191826" y="307.584"/>
      </g>
     </g>
     <g id="text_3">
      <!-- 0.4 -->
      <defs>
       <path d="M 37.796875 64.3125 
L 12.890625 25.390625 
L 37.796875 25.390625 
z
M 35.203125 72.90625 
L 47.609375 72.90625 
L 47.609375 25.390625 
L 58.015625 25.390625 
L 58.015625 17.1875 
L 47.609375 17.1875 
L 47.609375 0 
L 37.796875 0 
L 37.796875 17.1875 
L 4.890625 17.1875 
L 4.890625 26.703125 
z
" id="DejaVuSans-52"/>
      </defs>
      <g transform="translate(189.440438 322.182437)scale(0.1 -0.1)">
       <use xlink:href="#DejaVuSans-48"/>
       <use x="63.623047" xlink:href="#DejaVuSans-46"/>
       <use x="95.410156" xlink:href="#DejaVuSans-52"/>
      </g>
     </g>
    </g>
    <g id="xtick_4">
     <g id="line2d_4">
      <g>
       <use style="stroke:#000000;stroke-width:0.8;" x="267.182983" xlink:href="#m5305191826" y="307.584"/>
      </g>
     </g>
     <g id="text_4">
      <!-- 0.6 -->
      <defs>
       <path d="M 33.015625 40.375 
Q 26.375 40.375 22.484375 35.828125 
Q 18.609375 31.296875 18.609375 23.390625 
Q 18.609375 15.53125 22.484375 10.953125 
Q 26.375 6.390625 33.015625 6.390625 
Q 39.65625 6.390625 43.53125 10.953125 
Q 47.40625 15.53125 47.40625 23.390625 
Q 47.40625 31.296875 43.53125 35.828125 
Q 39.65625 40.375 33.015625 40.375 
z
M 52.59375 71.296875 
L 52.59375 62.3125 
Q 48.875 64.0625 45.09375 64.984375 
Q 41.3125 65.921875 37.59375 65.921875 
Q 27.828125 65.921875 22.671875 59.328125 
Q 17.53125 52.734375 16.796875 39.40625 
Q 19.671875 43.65625 24.015625 45.921875 
Q 28.375 48.1875 33.59375 48.1875 
Q 44.578125 48.1875 50.953125 41.515625 
Q 57.328125 34.859375 57.328125 23.390625 
Q 57.328125 12.15625 50.6875 5.359375 
Q 44.046875 -1.421875 33.015625 -1.421875 
Q 20.359375 -1.421875 13.671875 8.265625 
Q 6.984375 17.96875 6.984375 36.375 
Q 6.984375 53.65625 15.1875 63.9375 
Q 23.390625 74.21875 37.203125 74.21875 
Q 40.921875 74.21875 44.703125 73.484375 
Q 48.484375 72.75 52.59375 71.296875 
z
" id="DejaVuSans-54"/>
      </defs>
      <g transform="translate(259.231421 322.182437)scale(0.1 -0.1)">
       <use xlink:href="#DejaVuSans-48"/>
       <use x="63.623047" xlink:href="#DejaVuSans-46"/>
       <use x="95.410156" xlink:href="#DejaVuSans-54"/>
      </g>
     </g>
    </g>
    <g id="xtick_5">
     <g id="line2d_5">
      <g>
       <use style="stroke:#000000;stroke-width:0.8;" x="336.973965" xlink:href="#m5305191826" y="307.584"/>
      </g>
     </g>
     <g id="text_5">
      <!-- 0.8 -->
      <defs>
       <path d="M 31.78125 34.625 
Q 24.75 34.625 20.71875 30.859375 
Q 16.703125 27.09375 16.703125 20.515625 
Q 16.703125 13.921875 20.71875 10.15625 
Q 24.75 6.390625 31.78125 6.390625 
Q 38.8125 6.390625 42.859375 10.171875 
Q 46.921875 13.96875 46.921875 20.515625 
Q 46.921875 27.09375 42.890625 30.859375 
Q 38.875 34.625 31.78125 34.625 
z
M 21.921875 38.8125 
Q 15.578125 40.375 12.03125 44.71875 
Q 8.5 49.078125 8.5 55.328125 
Q 8.5 64.0625 14.71875 69.140625 
Q 20.953125 74.21875 31.78125 74.21875 
Q 42.671875 74.21875 48.875 69.140625 
Q 55.078125 64.0625 55.078125 55.328125 
Q 55.078125 49.078125 51.53125 44.71875 
Q 48 40.375 41.703125 38.8125 
Q 48.828125 37.15625 52.796875 32.3125 
Q 56.78125 27.484375 56.78125 20.515625 
Q 56.78125 9.90625 50.3125 4.234375 
Q 43.84375 -1.421875 31.78125 -1.421875 
Q 19.734375 -1.421875 13.25 4.234375 
Q 6.78125 9.90625 6.78125 20.515625 
Q 6.78125 27.484375 10.78125 32.3125 
Q 14.796875 37.15625 21.921875 38.8125 
z
M 18.3125 54.390625 
Q 18.3125 48.734375 21.84375 45.5625 
Q 25.390625 42.390625 31.78125 42.390625 
Q 38.140625 42.390625 41.71875 45.5625 
Q 45.3125 48.734375 45.3125 54.390625 
Q 45.3125 60.0625 41.71875 63.234375 
Q 38.140625 66.40625 31.78125 66.40625 
Q 25.390625 66.40625 21.84375 63.234375 
Q 18.3125 60.0625 18.3125 54.390625 
z
" id="DejaVuSans-56"/>
      </defs>
      <g transform="translate(329.022403 322.182437)scale(0.1 -0.1)">
       <use xlink:href="#DejaVuSans-48"/>
       <use x="63.623047" xlink:href="#DejaVuSans-46"/>
       <use x="95.410156" xlink:href="#DejaVuSans-56"/>
      </g>
     </g>
    </g>
    <g id="xtick_6">
     <g id="line2d_6">
      <g>
       <use style="stroke:#000000;stroke-width:0.8;" x="406.764948" xlink:href="#m5305191826" y="307.584"/>
      </g>
     </g>
     <g id="text_6">
      <!-- 1.0 -->
      <defs>
       <path d="M 12.40625 8.296875 
L 28.515625 8.296875 
L 28.515625 63.921875 
L 10.984375 60.40625 
L 10.984375 69.390625 
L 28.421875 72.90625 
L 38.28125 72.90625 
L 38.28125 8.296875 
L 54.390625 8.296875 
L 54.390625 0 
L 12.40625 0 
z
" id="DejaVuSans-49"/>
      </defs>
      <g transform="translate(398.813385 322.182437)scale(0.1 -0.1)">
       <use xlink:href="#DejaVuSans-49"/>
       <use x="63.623047" xlink:href="#DejaVuSans-46"/>
       <use x="95.410156" xlink:href="#DejaVuSans-48"/>
      </g>
     </g>
    </g>
    <g id="text_7">
     <!-- Threshold -->
     <defs>
      <path d="M -0.296875 72.90625 
L 61.375 72.90625 
L 61.375 64.59375 
L 35.5 64.59375 
L 35.5 0 
L 25.59375 0 
L 25.59375 64.59375 
L -0.296875 64.59375 
z
" id="DejaVuSans-84"/>
      <path d="M 54.890625 33.015625 
L 54.890625 0 
L 45.90625 0 
L 45.90625 32.71875 
Q 45.90625 40.484375 42.875 44.328125 
Q 39.84375 48.1875 33.796875 48.1875 
Q 26.515625 48.1875 22.3125 43.546875 
Q 18.109375 38.921875 18.109375 30.90625 
L 18.109375 0 
L 9.078125 0 
L 9.078125 75.984375 
L 18.109375 75.984375 
L 18.109375 46.1875 
Q 21.34375 51.125 25.703125 53.5625 
Q 30.078125 56 35.796875 56 
Q 45.21875 56 50.046875 50.171875 
Q 54.890625 44.34375 54.890625 33.015625 
z
" id="DejaVuSans-104"/>
      <path d="M 41.109375 46.296875 
Q 39.59375 47.171875 37.8125 47.578125 
Q 36.03125 48 33.890625 48 
Q 26.265625 48 22.1875 43.046875 
Q 18.109375 38.09375 18.109375 28.8125 
L 18.109375 0 
L 9.078125 0 
L 9.078125 54.6875 
L 18.109375 54.6875 
L 18.109375 46.1875 
Q 20.953125 51.171875 25.484375 53.578125 
Q 30.03125 56 36.53125 56 
Q 37.453125 56 38.578125 55.875 
Q 39.703125 55.765625 41.0625 55.515625 
z
" id="DejaVuSans-114"/>
      <path d="M 56.203125 29.59375 
L 56.203125 25.203125 
L 14.890625 25.203125 
Q 15.484375 15.921875 20.484375 11.0625 
Q 25.484375 6.203125 34.421875 6.203125 
Q 39.59375 6.203125 44.453125 7.46875 
Q 49.3125 8.734375 54.109375 11.28125 
L 54.109375 2.78125 
Q 49.265625 0.734375 44.1875 -0.34375 
Q 39.109375 -1.421875 33.890625 -1.421875 
Q 20.796875 -1.421875 13.15625 6.1875 
Q 5.515625 13.8125 5.515625 26.8125 
Q 5.515625 40.234375 12.765625 48.109375 
Q 20.015625 56 32.328125 56 
Q 43.359375 56 49.78125 48.890625 
Q 56.203125 41.796875 56.203125 29.59375 
z
M 47.21875 32.234375 
Q 47.125 39.59375 43.09375 43.984375 
Q 39.0625 48.390625 32.421875 48.390625 
Q 24.90625 48.390625 20.390625 44.140625 
Q 15.875 39.890625 15.1875 32.171875 
z
" id="DejaVuSans-101"/>
      <path d="M 44.28125 53.078125 
L 44.28125 44.578125 
Q 40.484375 46.53125 36.375 47.5 
Q 32.28125 48.484375 27.875 48.484375 
Q 21.1875 48.484375 17.84375 46.4375 
Q 14.5 44.390625 14.5 40.28125 
Q 14.5 37.15625 16.890625 35.375 
Q 19.28125 33.59375 26.515625 31.984375 
L 29.59375 31.296875 
Q 39.15625 29.25 43.1875 25.515625 
Q 47.21875 21.78125 47.21875 15.09375 
Q 47.21875 7.46875 41.1875 3.015625 
Q 35.15625 -1.421875 24.609375 -1.421875 
Q 20.21875 -1.421875 15.453125 -0.5625 
Q 10.6875 0.296875 5.421875 2 
L 5.421875 11.28125 
Q 10.40625 8.6875 15.234375 7.390625 
Q 20.0625 6.109375 24.8125 6.109375 
Q 31.15625 6.109375 34.5625 8.28125 
Q 37.984375 10.453125 37.984375 14.40625 
Q 37.984375 18.0625 35.515625 20.015625 
Q 33.0625 21.96875 24.703125 23.78125 
L 21.578125 24.515625 
Q 13.234375 26.265625 9.515625 29.90625 
Q 5.8125 33.546875 5.8125 39.890625 
Q 5.8125 47.609375 11.28125 51.796875 
Q 16.75 56 26.8125 56 
Q 31.78125 56 36.171875 55.265625 
Q 40.578125 54.546875 44.28125 53.078125 
z
" id="DejaVuSans-115"/>
      <path d="M 30.609375 48.390625 
Q 23.390625 48.390625 19.1875 42.75 
Q 14.984375 37.109375 14.984375 27.296875 
Q 14.984375 17.484375 19.15625 11.84375 
Q 23.34375 6.203125 30.609375 6.203125 
Q 37.796875 6.203125 41.984375 11.859375 
Q 46.1875 17.53125 46.1875 27.296875 
Q 46.1875 37.015625 41.984375 42.703125 
Q 37.796875 48.390625 30.609375 48.390625 
z
M 30.609375 56 
Q 42.328125 56 49.015625 48.375 
Q 55.71875 40.765625 55.71875 27.296875 
Q 55.71875 13.875 49.015625 6.21875 
Q 42.328125 -1.421875 30.609375 -1.421875 
Q 18.84375 -1.421875 12.171875 6.21875 
Q 5.515625 13.875 5.515625 27.296875 
Q 5.515625 40.765625 12.171875 48.375 
Q 18.84375 56 30.609375 56 
z
" id="DejaVuSans-111"/>
      <path d="M 9.421875 75.984375 
L 18.40625 75.984375 
L 18.40625 0 
L 9.421875 0 
z
" id="DejaVuSans-108"/>
      <path d="M 45.40625 46.390625 
L 45.40625 75.984375 
L 54.390625 75.984375 
L 54.390625 0 
L 45.40625 0 
L 45.40625 8.203125 
Q 42.578125 3.328125 38.25 0.953125 
Q 33.9375 -1.421875 27.875 -1.421875 
Q 17.96875 -1.421875 11.734375 6.484375 
Q 5.515625 14.40625 5.515625 27.296875 
Q 5.515625 40.1875 11.734375 48.09375 
Q 17.96875 56 27.875 56 
Q 33.9375 56 38.25 53.625 
Q 42.578125 51.265625 45.40625 46.390625 
z
M 14.796875 27.296875 
Q 14.796875 17.390625 18.875 11.75 
Q 22.953125 6.109375 30.078125 6.109375 
Q 37.203125 6.109375 41.296875 11.75 
Q 45.40625 17.390625 45.40625 27.296875 
Q 45.40625 37.203125 41.296875 42.84375 
Q 37.203125 48.484375 30.078125 48.484375 
Q 22.953125 48.484375 18.875 42.84375 
Q 14.796875 37.203125 14.796875 27.296875 
z
" id="DejaVuSans-100"/>
     </defs>
     <g transform="translate(211.410781 335.860562)scale(0.1 -0.1)">
      <use xlink:href="#DejaVuSans-84"/>
      <use x="61.083984" xlink:href="#DejaVuSans-104"/>
      <use x="124.462891" xlink:href="#DejaVuSans-114"/>
      <use x="165.544922" xlink:href="#DejaVuSans-101"/>
      <use x="227.068359" xlink:href="#DejaVuSans-115"/>
      <use x="279.167969" xlink:href="#DejaVuSans-104"/>
      <use x="342.546875" xlink:href="#DejaVuSans-111"/>
      <use x="403.728516" xlink:href="#DejaVuSans-108"/>
      <use x="431.511719" xlink:href="#DejaVuSans-100"/>
     </g>
    </g>
   </g>
   <g id="matplotlib.axis_2">
    <g id="ytick_1">
     <g id="line2d_7">
      <defs>
       <path d="M 0 0 
L -3.5 0 
" id="ma98d64e1ae" style="stroke:#000000;stroke-width:0.8;"/>
      </defs>
      <g>
       <use style="stroke:#000000;stroke-width:0.8;" x="57.6" xlink:href="#ma98d64e1ae" y="307.584"/>
      </g>
     </g>
     <g id="text_8">
      <!-- 0.0 -->
      <g transform="translate(34.696875 311.383219)scale(0.1 -0.1)">
       <use xlink:href="#DejaVuSans-48"/>
       <use x="63.623047" xlink:href="#DejaVuSans-46"/>
       <use x="95.410156" xlink:href="#DejaVuSans-48"/>
      </g>
     </g>
    </g>
    <g id="ytick_2">
     <g id="line2d_8">
      <g>
       <use style="stroke:#000000;stroke-width:0.8;" x="57.6" xlink:href="#ma98d64e1ae" y="254.3616"/>
      </g>
     </g>
     <g id="text_9">
      <!-- 0.2 -->
      <g transform="translate(34.696875 258.160819)scale(0.1 -0.1)">
       <use xlink:href="#DejaVuSans-48"/>
       <use x="63.623047" xlink:href="#DejaVuSans-46"/>
       <use x="95.410156" xlink:href="#DejaVuSans-50"/>
      </g>
     </g>
    </g>
    <g id="ytick_3">
     <g id="line2d_9">
      <g>
       <use style="stroke:#000000;stroke-width:0.8;" x="57.6" xlink:href="#ma98d64e1ae" y="201.1392"/>
      </g>
     </g>
     <g id="text_10">
      <!-- 0.4 -->
      <g transform="translate(34.696875 204.938419)scale(0.1 -0.1)">
       <use xlink:href="#DejaVuSans-48"/>
       <use x="63.623047" xlink:href="#DejaVuSans-46"/>
       <use x="95.410156" xlink:href="#DejaVuSans-52"/>
      </g>
     </g>
    </g>
    <g id="ytick_4">
     <g id="line2d_10">
      <g>
       <use style="stroke:#000000;stroke-width:0.8;" x="57.6" xlink:href="#ma98d64e1ae" y="147.9168"/>
      </g>
     </g>
     <g id="text_11">
      <!-- 0.6 -->
      <g transform="translate(34.696875 151.716019)scale(0.1 -0.1)">
       <use xlink:href="#DejaVuSans-48"/>
       <use x="63.623047" xlink:href="#DejaVuSans-46"/>
       <use x="95.410156" xlink:href="#DejaVuSans-54"/>
      </g>
     </g>
    </g>
    <g id="ytick_5">
     <g id="line2d_11">
      <g>
       <use style="stroke:#000000;stroke-width:0.8;" x="57.6" xlink:href="#ma98d64e1ae" y="94.6944"/>
      </g>
     </g>
     <g id="text_12">
      <!-- 0.8 -->
      <g transform="translate(34.696875 98.493619)scale(0.1 -0.1)">
       <use xlink:href="#DejaVuSans-48"/>
       <use x="63.623047" xlink:href="#DejaVuSans-46"/>
       <use x="95.410156" xlink:href="#DejaVuSans-56"/>
      </g>
     </g>
    </g>
    <g id="ytick_6">
     <g id="line2d_12">
      <g>
       <use style="stroke:#000000;stroke-width:0.8;" x="57.6" xlink:href="#ma98d64e1ae" y="41.472"/>
      </g>
     </g>
     <g id="text_13">
      <!-- 1.0 -->
      <g transform="translate(34.696875 45.271219)scale(0.1 -0.1)">
       <use xlink:href="#DejaVuSans-49"/>
       <use x="63.623047" xlink:href="#DejaVuSans-46"/>
       <use x="95.410156" xlink:href="#DejaVuSans-48"/>
      </g>
     </g>
    </g>
   </g>
   <g id="line2d_13">
    <path clip-path="url(#p0e0c2cd9fc)" d="M 73.832727 202.369776 
L 73.885116 202.556 
L 75.049114 201.944661 
L 75.149021 201.821538 
L 75.915832 201.450442 
L 75.966028 201.326164 
L 76.167919 201.076732 
L 76.247075 200.826127 
L 76.319376 201.013823 
L 76.366721 200.888151 
L 76.468288 201.076364 
L 76.756094 200.824275 
L 77.62022 200.443895 
L 77.782635 200.1888 
L 78.103105 200.060796 
L 78.141797 200.250043 
L 78.409505 199.864412 
L 79.171044 199.735252 
L 79.235382 199.476 
L 79.689629 199.215499 
L 79.984801 198.953739 
L 80.295303 198.822385 
L 80.339078 199.012881 
L 81.237419 197.682353 
L 82.828422 196.979136 
L 82.832949 196.841739 
L 83.531742 196.704 
L 83.615532 196.288719 
L 83.89838 196.1496 
L 83.967191 195.870316 
L 84.109454 195.589628 
L 84.183431 195.448755 
L 84.854914 195.307526 
L 85.101762 194.881699 
L 85.118771 194.739038 
L 85.533179 194.452629 
L 85.853719 194.647014 
L 86.091088 194.503328 
L 86.213966 194.070069 
L 86.271792 193.92491 
L 86.505519 193.633477 
L 86.616339 193.487199 
L 86.621594 193.682591 
L 86.775612 193.878486 
L 87.103769 193.585053 
L 87.113367 193.437767 
L 87.550881 193.63436 
L 87.629914 193.1904 
L 88.048071 192.8925 
L 88.052456 192.742967 
L 88.328112 192.940449 
L 88.414043 192.489688 
L 88.820812 192.187206 
L 88.877583 192.035368 
L 88.963545 192.233739 
L 88.971473 192.081562 
L 89.018385 191.928983 
L 89.076433 192.128 
L 89.313647 192.327544 
L 89.348717 192.021418 
L 89.511492 192.221617 
L 89.513653 192.068005 
L 89.514813 191.913984 
L 89.671426 191.604706 
L 89.912862 191.805687 
L 89.95688 191.85207 
L 90.276956 190.683503 
L 90.551986 190.523803 
L 90.555632 190.363666 
L 90.674007 190.20309 
L 90.752029 190.450795 
L 90.7581 190.127669 
L 90.799716 190.332994 
L 90.974092 190.538888 
L 91.020739 189.887733 
L 91.101282 189.930577 
L 91.268379 189.27053 
L 91.383949 188.770614 
L 91.836597 187.245193 
L 91.899433 186.554582 
L 92.057972 186.38069 
L 92.160951 186.624 
L 92.185283 186.449202 
L 92.574701 185.921765 
L 92.715097 185.389714 
L 93.259889 184.85299 
L 93.260324 184.673032 
L 93.683217 184.129979 
L 93.780332 183.76527 
L 94.373371 183.214148 
L 94.388803 183.424761 
L 94.404581 183.24 
L 94.704576 183.054689 
L 94.79935 182.119784 
L 95.08009 181.931116 
L 95.850658 181.552072 
L 95.883781 181.361692 
L 96.071165 181.170735 
L 96.12848 180.594383 
L 96.723015 180.20722 
L 96.925271 179.817688 
L 96.933693 179.622028 
L 97.316208 179.425767 
L 97.399062 179.031434 
L 97.453566 178.833356 
L 97.865902 178.634667 
L 97.943355 178.235443 
L 98.248771 177.833739 
L 98.596557 177.226484 
L 98.64769 177.4386 
L 98.686758 177.23493 
L 98.765326 176.620075 
L 98.868884 176.413833 
L 99.014503 176.626675 
L 99.238824 175.7952 
L 99.883401 174.74089 
L 99.908743 174.528 
L 100.235114 173.885217 
L 100.330149 173.669574 
L 100.600264 173.883141 
L 100.794909 172.794371 
L 100.844576 172.574486 
L 100.942334 172.788706 
L 101.017625 172.568092 
L 101.062019 172.783003 
L 101.083808 172.561655 
L 101.424489 171.218149 
L 101.574964 170.991628 
L 101.598942 170.307526 
L 101.742563 170.52297 
L 102.163106 169.831906 
L 102.234376 168.664515 
L 102.351576 167.954535 
L 102.724191 166.484891 
L 102.982821 166.701176 
L 103.183547 166.457012 
L 103.184001 166.212 
L 103.256137 166.428939 
L 103.387213 165.688615 
L 103.414643 165.906158 
L 103.814126 165.408169 
L 103.848615 164.401614 
L 104.817843 163.855059 
L 104.893695 163.082323 
L 105.207166 162.822894 
L 105.3438 162.562532 
L 106.223496 162.301232 
L 106.261697 160.713443 
L 106.342326 160.445431 
L 106.734594 160.176439 
L 106.750583 159.906462 
L 106.900171 160.123772 
L 107.195935 159.852706 
L 107.372017 160.070718 
L 107.543955 159.525383 
L 107.544519 159.2512 
L 108.464531 158.422525 
L 108.497313 158.144239 
L 108.885934 157.864912 
L 108.911406 157.584539 
L 109.000573 157.802386 
L 109.187056 157.520842 
L 109.193762 157.238237 
L 109.92394 156.954566 
L 110.191842 157.17287 
L 110.675475 156.888 
L 111.424866 156.602049 
L 111.533539 156.02688 
L 112.317206 155.447312 
L 112.330769 155.665655 
L 112.433517 155.374065 
L 112.472542 155.593108 
L 112.554552 155.812994 
L 113.289382 156.03373 
L 113.642906 155.446326 
L 113.927564 155.667635 
L 114.225291 155.075368 
L 117.650762 154.7775 
L 118.081419 154.478466 
L 118.814379 153.574299 
L 119.104113 153.795408 
L 119.618927 153.491478 
L 119.729879 153.186345 
L 120.122922 152.88 
L 122.58597 153.101487 
L 122.621494 153.323857 
L 124.454772 153.015952 
L 124.585525 152.706816 
L 125.397265 152.396441 
L 125.654797 151.771944 
L 127.227452 151.457806 
L 127.457149 151.1424 
L 127.66575 151.364405 
L 127.776922 151.047529 
L 129.076171 150.729366 
L 129.252458 150.409906 
L 129.751851 150.089143 
L 131.193937 149.443672 
L 131.313627 149.66538 
L 131.594469 149.888 
L 131.607818 149.562854 
L 131.961817 149.236364 
L 133.106937 148.908522 
L 133.380771 148.57932 
L 134.545091 148.248748 
L 134.73825 147.9168 
L 135.976935 147.248736 
L 136.208826 146.912604 
L 136.9497 146.575059 
L 137.422718 146.236093 
L 138.091782 145.55386 
L 138.607801 145.210576 
L 138.924064 144.17194 
L 139.190708 143.822769 
L 139.305302 143.472103 
L 139.843243 143.119931 
L 139.923966 142.766245 
L 140.739373 142.054289 
L 140.768085 141.696 
L 141.702074 141.336156 
L 142.087405 141.553252 
L 142.122933 141.191529 
L 142.413912 140.828227 
L 143.354923 140.463335 
L 143.895617 140.096842 
L 144.107257 139.728738 
L 145.054992 139.359013 
L 145.650596 139.575099 
L 146.341061 138.830049 
L 147.472442 138.078361 
L 148.552589 137.7 
L 148.588664 137.319946 
L 149.664789 136.938188 
L 149.757838 137.152719 
L 149.878017 136.768865 
L 150.686071 137.417143 
L 150.783524 137.0304 
L 152.646052 136.641895 
L 153.129398 136.251616 
L 153.895017 135.859551 
L 154.145118 135.465688 
L 154.537491 135.070014 
L 154.705238 134.672516 
L 155.832815 134.273182 
L 156.143209 133.468956 
L 156.435471 133.682902 
L 156.605336 133.277538 
L 157.020252 132.87028 
L 158.493417 132.461115 
L 158.845987 132.674704 
L 159.454627 132.263153 
L 159.815132 132.477283 
L 159.959852 132.063319 
L 160.007394 132.277991 
L 160.51922 131.861587 
L 160.56465 131.4432 
L 160.581123 131.657928 
L 161.119921 131.873684 
L 161.312328 132.090475 
L 162.624288 132.308308 
L 163.79976 131.885957 
L 163.824401 131.461565 
L 164.062494 131.252505 
L 166.413775 130.392351 
L 166.710413 129.95912 
L 166.801259 129.523765 
L 167.020988 129.740108 
L 169.138781 129.302069 
L 169.305454 129.518933 
L 169.585948 129.078178 
L 170.163772 128.635236 
L 171.763573 128.19009 
L 171.844258 127.742723 
L 172.422615 127.29312 
L 172.428757 127.508211 
L 172.69165 127.055759 
L 173.093801 126.601028 
L 173.160339 126.144 
L 173.271901 126.358359 
L 174.625447 125.898396 
L 175.13218 125.436092 
L 176.208124 125.650286 
L 176.696607 125.184982 
L 177.100577 125.399631 
L 178.349646 124.93129 
L 179.471275 125.362605 
L 181.276214 124.890528 
L 181.372025 124.416 
L 184.704241 123.459509 
L 184.838785 122.977508 
L 185.0349 123.191433 
L 185.102798 122.706189 
L 185.470884 122.920528 
L 186.418414 123.136 
L 186.465887 122.646748 
L 186.759205 122.862638 
L 187.280737 122.370048 
L 188.062687 121.874824 
L 188.224387 122.090381 
L 189.055792 121.591742 
L 192.219174 121.090415 
L 192.872314 120.586378 
L 193.963946 121.016348 
L 194.949017 120.507989 
L 195.215718 119.996852 
L 198.796208 120.428308 
L 199.687278 120.645818 
L 201.581702 120.86453 
L 202.011438 120.347302 
L 205.514639 119.8272 
L 205.723578 119.304201 
L 206.694464 119.521609 
L 208.419672 118.994824 
L 209.129675 118.465079 
L 209.364653 118.681961 
L 209.7716 118.900068 
L 210.697611 118.365552 
L 212.685105 118.584 
L 215.831813 118.045538 
L 216.712541 116.959358 
L 217.79728 116.411586 
L 218.407869 116.62755 
L 219.383093 116.075653 
L 221.159009 115.520557 
L 221.242225 114.962233 
L 222.678184 114.400653 
L 224.480535 113.267613 
L 224.915971 113.478776 
L 224.970764 112.906195 
L 226.109446 112.330225 
L 226.26637 112.540487 
L 226.453275 111.96 
L 226.669521 112.170412 
L 226.713304 111.585341 
L 227.247373 111.795892 
L 227.266438 111.206169 
L 227.271387 111.416846 
L 227.781442 111.6288 
L 228.500833 111.033191 
L 228.752608 110.433951 
L 229.508393 110.644844 
L 229.910664 110.040736 
L 230.164906 110.251717 
L 232.745701 109.642667 
L 233.635344 110.066087 
L 233.940973 108.208552 
L 234.901534 106.950662 
L 236.343038 107.3664 
L 236.485938 106.728764 
L 237.525077 106.087054 
L 237.672345 105.441231 
L 239.192703 104.791254 
L 239.742766 104.99551 
L 239.918076 104.339883 
L 242.505921 103.68 
L 243.702119 103.015818 
L 243.755254 103.216941 
L 244.312597 103.419384 
L 245.26544 102.071762 
L 245.319325 102.272424 
L 245.556187 101.590326 
L 245.750316 101.79072 
L 248.142306 101.102448 
L 248.63188 101.30255 
L 251.012413 100.608 
L 252.48255 100.807784 
L 252.551756 100.106847 
L 253.035133 100.306286 
L 253.650932 99.598853 
L 255.057323 98.169402 
L 255.727287 97.447283 
L 255.925643 97.640969 
L 256.640513 97.836 
L 258.858652 98.03239 
L 259.250989 98.230154 
L 260.077076 97.495579 
L 261.722329 96.755831 
L 262.261424 97.147915 
L 263.026689 97.34605 
L 263.21834 97.5456 
L 263.56728 96.034532 
L 264.152508 95.270816 
L 264.335336 95.465739 
L 264.815296 94.6944 
L 266.009046 93.917431 
L 266.133907 94.109538 
L 266.184123 93.324706 
L 266.533284 93.516044 
L 266.808856 92.7232 
L 269.022475 91.924461 
L 269.637868 91.119761 
L 269.807367 91.305708 
L 270.766191 90.492632 
L 270.885712 89.673419 
L 271.903727 88.848 
L 272.657426 89.028137 
L 273.013095 87.353379 
L 273.058639 87.529846 
L 273.965296 84.961121 
L 273.981275 85.131 
L 274.170395 85.302212 
L 274.276867 84.427087 
L 277.670787 84.768 
L 278.825841 83.880287 
L 279.585525 82.985472 
L 280.85433 83.152193 
L 281.500518 82.247226 
L 282.123813 82.412308 
L 282.301835 82.578732 
L 283.24073 80.734426 
L 283.379793 79.800889 
L 284.240248 79.959273 
L 284.524771 79.014772 
L 287.362068 79.1712 
L 287.774216 79.488 
L 287.857311 78.52557 
L 287.864917 78.682576 
L 288.038573 79.000615 
L 288.577426 79.324138 
L 288.605088 79.653287 
L 288.740007 79.820017 
L 289.774834 80.157885 
L 289.794886 79.31904 
L 290.033355 78.3 
L 290.254486 78.465148 
L 291.660003 78.631784 
L 292.062719 78.799928 
L 292.920329 78.9696 
L 292.941263 79.140822 
L 292.967709 78.092917 
L 293.296982 77.035355 
L 293.750193 77.2 
L 293.78266 77.366177 
L 295.399789 76.290393 
L 295.427812 76.453859 
L 295.65304 76.785441 
L 296.366631 76.9536 
L 297.597646 74.736 
L 297.648567 73.61113 
L 297.803937 73.767146 
L 297.836491 72.626576 
L 299.087124 72.779294 
L 299.388819 71.622621 
L 299.416311 70.454495 
L 303.080562 71.190091 
L 303.082905 69.984 
L 303.63222 70.130215 
L 303.860006 68.906227 
L 305.868334 69.192 
L 306.731304 69.337131 
L 307.178808 68.0832 
L 308.613661 68.224 
L 308.694091 68.366298 
L 308.938045 68.510118 
L 308.947525 68.802422 
L 309.151394 67.504696 
L 309.887792 67.790769 
L 310.414649 66.465945 
L 310.594092 65.1264 
L 311.990204 65.258547 
L 312.166584 65.39218 
L 312.619683 65.527322 
L 312.670256 65.664 
L 314.460823 65.80224 
L 314.767305 65.942069 
L 315.43278 66.083514 
L 317.934704 66.226605 
L 318.105422 66.371368 
L 318.529383 66.517835 
L 319.227957 65.091408 
L 319.969867 65.232 
L 321.361735 65.374275 
L 321.445985 65.518265 
L 321.867357 64.0512 
L 322.790259 62.566244 
L 323.859064 61.063067 
L 323.973015 61.184 
L 325.709784 61.811771 
L 326.89653 60.236308 
L 327.33436 60.357368 
L 329.765948 60.604235 
L 331.074379 60.730105 
L 331.34632 59.095311 
L 331.587063 59.2128 
L 331.628332 57.545879 
L 332.363398 57.876164 
L 332.913782 58.220308 
L 333.999327 58.338254 
L 334.277023 56.570553 
L 335.591516 56.787799 
L 336.074496 54.970435 
L 336.098945 55.068964 
L 336.141478 53.212235 
L 337.313178 51.328 
L 337.611366 49.415642 
L 341.66847 49.660062 
L 342.780971 49.788 
L 342.809512 49.85348 
L 348.835878 50.72807 
L 349.056502 50.809263 
L 356.255779 51.420112 
L 358.294545 51.907765 
L 358.819949 49.376317 
L 360.855008 49.618286 
L 360.875862 49.702268 
L 361.42665 49.964936 
L 361.447516 50.056258 
L 362.275773 50.442067 
L 363.711637 50.648276 
L 364.104954 50.754977 
L 367.208222 51.090506 
L 370.453044 51.577519 
L 372.118082 51.707077 
L 372.454514 51.976421 
L 373.691414 52.260324 
L 373.799137 52.40811 
L 374.288533 52.716169 
L 374.88648 52.8768 
L 375.222732 53.754092 
L 375.858555 54.144 
L 377.443703 54.559475 
L 378.16192 55.003119 
L 378.923285 55.236414 
L 379.296321 55.477895 
L 379.409133 50.976 
L 380.248431 51.1488 
L 381.912329 51.328 
L 382.074231 51.707077 
L 382.699184 51.907765 
L 383.413014 52.795915 
L 383.533842 47.257043 
L 385.358207 47.3856 
L 385.531544 47.52 
L 386.847386 47.660651 
L 387.145362 47.962537 
L 387.388631 48.1248 
L 387.411484 48.295385 
L 387.920521 48.664216 
L 388.121297 48.864 
L 389.454681 49.536 
L 389.914921 50.648276 
L 390.436976 50.976 
L 390.995516 51.707077 
L 391.068533 52.56 
L 391.303251 53.042087 
L 391.410621 53.568 
L 392.199398 55.477895 
L 392.814627 56.256 
L 392.845425 57.125647 
L 393.516988 58.104 
L 393.576641 61.942154 
L 394.230638 63.648 
L 395.244237 74.736 
L 395.429568 79.488 
L 395.484756 85.824 
L 395.733321 94.6944 
L 396.520321 108 
L 396.883519 130.176 
L 398.175437 41.472 
L 398.487273 41.472 
L 398.487273 41.472 
" style="fill:none;stroke:#0000ff;stroke-dasharray:5.55,2.4;stroke-dashoffset:0;stroke-width:1.5;"/>
   </g>
   <g id="line2d_14">
    <path clip-path="url(#p0e0c2cd9fc)" d="M 73.832727 41.472 
L 73.885116 42.250105 
L 76.247075 42.250105 
L 76.468288 43.806316 
L 78.103105 43.806316 
L 78.141797 44.584421 
L 80.295303 44.584421 
L 80.427001 45.362526 
L 81.612994 45.362526 
L 81.652969 46.140632 
L 82.713049 46.140632 
L 82.832949 46.918737 
L 85.533179 46.918737 
L 85.853719 47.696842 
L 86.616339 47.696842 
L 86.621594 48.474947 
L 86.775612 49.253053 
L 87.113367 49.253053 
L 87.629914 50.031158 
L 88.052456 50.031158 
L 88.414043 50.809263 
L 88.877583 50.809263 
L 89.076433 52.365474 
L 89.514813 53.921684 
L 89.671426 53.921684 
L 89.94776 54.699789 
L 90.014822 57.034105 
L 90.674007 57.034105 
L 90.7581 58.590316 
L 90.799716 59.368421 
L 91.185948 60.924632 
L 92.057972 60.924632 
L 92.185283 62.480842 
L 94.373371 62.480842 
L 94.404581 63.258947 
L 98.596557 63.258947 
L 98.730846 64.037053 
L 98.868884 64.037053 
L 99.057917 64.815158 
L 100.330149 64.815158 
L 100.711847 65.593263 
L 100.844576 65.593263 
L 101.126299 67.149474 
L 101.598942 67.149474 
L 101.742563 67.927579 
L 102.430918 67.927579 
L 102.489504 68.705684 
L 102.724191 68.705684 
L 102.982821 69.483789 
L 103.184001 69.483789 
L 103.323556 70.261895 
L 103.387213 70.261895 
L 103.414643 71.04 
L 104.563196 71.04 
L 104.569327 71.818105 
L 106.750583 71.818105 
L 106.900171 72.596211 
L 107.195935 72.596211 
L 107.372017 73.374316 
L 108.911406 73.374316 
L 109.000573 74.152421 
L 109.92394 74.152421 
L 110.191842 74.930526 
L 112.317206 74.930526 
L 112.433517 75.708632 
L 112.554552 77.264842 
L 113.289382 78.042947 
L 113.642906 78.042947 
L 114.037977 78.821053 
L 118.814379 78.821053 
L 119.104113 79.599158 
L 120.122922 79.599158 
L 122.58597 80.377263 
L 122.621494 81.155368 
L 127.457149 81.155368 
L 127.776922 81.933474 
L 131.193937 81.933474 
L 131.313627 82.711579 
L 131.607818 83.489684 
L 141.702074 83.489684 
L 142.122933 84.267789 
L 145.054992 84.267789 
L 145.650596 85.045895 
L 149.664789 85.045895 
L 149.757838 85.824 
L 149.878017 85.824 
L 150.250513 87.380211 
L 150.783524 88.158316 
L 156.143209 88.158316 
L 156.435471 88.936421 
L 158.493417 88.936421 
L 158.845987 89.714526 
L 159.454627 89.714526 
L 159.815132 90.492632 
L 159.959852 90.492632 
L 160.007394 91.270737 
L 160.56465 91.270737 
L 160.581123 92.048842 
L 161.119921 92.826947 
L 161.312328 93.605053 
L 162.624288 94.383158 
L 163.824401 94.383158 
L 164.062494 95.161263 
L 166.801259 95.161263 
L 167.020988 95.939368 
L 169.138781 95.939368 
L 169.305454 96.717474 
L 172.422615 96.717474 
L 172.428757 97.495579 
L 173.160339 97.495579 
L 173.271901 98.273684 
L 175.13218 98.273684 
L 176.208124 99.051789 
L 176.696607 99.051789 
L 177.100577 99.829895 
L 178.349646 99.829895 
L 178.829115 100.608 
L 179.471275 101.386105 
L 184.838785 101.386105 
L 185.102798 102.164211 
L 185.470884 102.942316 
L 186.465887 103.720421 
L 186.759205 104.498526 
L 188.062687 104.498526 
L 188.224387 105.276632 
L 192.872314 105.276632 
L 193.315013 106.054737 
L 193.963946 106.832842 
L 195.215718 106.832842 
L 197.523672 107.610947 
L 198.796208 108.389053 
L 199.687278 109.167158 
L 201.581702 109.945263 
L 205.723578 109.945263 
L 206.694464 110.723368 
L 209.129675 110.723368 
L 209.364653 111.501474 
L 209.7716 112.279579 
L 210.697611 112.279579 
L 212.685105 113.057684 
L 217.79728 113.057684 
L 218.407869 113.835789 
L 224.480535 113.835789 
L 224.970764 114.613895 
L 226.109446 114.613895 
L 226.26637 115.392 
L 226.453275 115.392 
L 226.713304 116.170105 
L 227.266438 116.948211 
L 227.271387 117.726316 
L 227.781442 118.504421 
L 228.752608 118.504421 
L 229.508393 119.282526 
L 229.910664 119.282526 
L 230.164906 120.060632 
L 232.745701 120.060632 
L 233.832272 121.616842 
L 234.901534 121.616842 
L 236.485938 123.173053 
L 239.192703 123.173053 
L 239.742766 123.951158 
L 243.702119 123.951158 
L 243.755254 124.729263 
L 244.312597 125.507368 
L 245.26544 125.507368 
L 245.319325 126.285474 
L 245.556187 126.285474 
L 245.750316 127.063579 
L 248.142306 127.063579 
L 248.63188 127.841684 
L 251.012413 127.841684 
L 252.551756 128.619789 
L 253.035133 129.397895 
L 255.727287 129.397895 
L 255.925643 130.176 
L 256.640513 130.954105 
L 258.858652 131.732211 
L 259.250989 132.510316 
L 261.722329 132.510316 
L 262.261424 134.066526 
L 263.026689 134.844632 
L 263.21834 135.622737 
L 264.152508 135.622737 
L 264.335336 136.400842 
L 266.009046 136.400842 
L 266.184123 137.178947 
L 266.533284 137.957053 
L 269.637868 137.957053 
L 269.807367 138.735158 
L 271.903727 138.735158 
L 272.657426 139.513263 
L 273.013095 139.513263 
L 273.058639 140.291368 
L 273.965296 140.291368 
L 273.981275 141.069474 
L 274.276867 141.847579 
L 276.359151 142.625684 
L 277.670787 143.403789 
L 279.585525 143.403789 
L 280.85433 144.181895 
L 281.500518 144.181895 
L 282.123813 144.96 
L 282.301835 145.738105 
L 283.379793 145.738105 
L 284.240248 146.516211 
L 284.524771 146.516211 
L 287.362068 147.294316 
L 287.638502 148.072421 
L 287.966082 150.406737 
L 288.038573 151.184842 
L 288.577426 152.741053 
L 288.605088 154.297263 
L 288.740007 155.075368 
L 289.774834 156.631579 
L 289.794886 157.409684 
L 290.033355 157.409684 
L 290.254486 158.187789 
L 291.660003 158.965895 
L 292.062719 159.744 
L 292.920329 160.522105 
L 292.967709 161.300211 
L 293.296982 161.300211 
L 293.750193 162.078316 
L 293.78266 162.856421 
L 295.399789 162.856421 
L 295.427812 163.634526 
L 295.65304 165.190737 
L 296.366631 165.968842 
L 297.648567 165.968842 
L 297.836491 166.746947 
L 299.087124 167.525053 
L 299.416311 167.525053 
L 300.142142 168.303158 
L 301.422272 169.081263 
L 301.504898 169.859368 
L 303.082905 171.415579 
L 303.63222 172.193684 
L 303.860006 172.193684 
L 305.471924 172.971789 
L 305.868334 173.749895 
L 306.731304 174.528 
L 307.178808 174.528 
L 308.613661 175.306105 
L 308.694091 176.084211 
L 308.938045 176.862316 
L 308.947525 178.418526 
L 309.151394 178.418526 
L 309.887792 179.974737 
L 310.594092 179.974737 
L 311.990204 180.752842 
L 312.166584 181.530947 
L 312.619683 182.309053 
L 312.670256 183.087158 
L 314.460823 183.865263 
L 314.767305 184.643368 
L 315.43278 185.421474 
L 317.934704 186.199579 
L 318.105422 186.977684 
L 318.529383 187.755789 
L 319.227957 187.755789 
L 319.969867 188.533895 
L 321.361735 189.312 
L 321.445985 190.090105 
L 323.859064 190.090105 
L 323.973015 190.868211 
L 325.501983 193.980632 
L 325.709784 194.758737 
L 326.89653 194.758737 
L 327.33436 195.536842 
L 329.258109 196.314947 
L 329.765948 197.093053 
L 331.074379 197.871158 
L 331.34632 197.871158 
L 331.628332 198.649263 
L 331.97366 199.427368 
L 332.09522 200.205474 
L 332.542351 201.761684 
L 332.625861 202.539789 
L 332.913782 203.317895 
L 333.999327 204.096 
L 334.277023 204.096 
L 335.310452 204.874105 
L 335.591516 205.652211 
L 336.074496 205.652211 
L 336.141478 206.430316 
L 337.611366 206.430316 
L 339.261209 207.208421 
L 339.374366 207.986526 
L 340.146315 208.764632 
L 341.66847 209.542737 
L 342.750879 210.320842 
L 342.809512 211.877053 
L 343.316803 212.655158 
L 344.468958 213.433263 
L 344.878042 214.211368 
L 346.156651 215.767579 
L 346.23337 216.545684 
L 347.211695 217.323789 
L 347.414092 218.101895 
L 347.468078 219.658105 
L 348.292565 220.436211 
L 348.835878 221.214316 
L 349.056502 221.992421 
L 350.217435 222.770526 
L 350.221346 223.548632 
L 351.168166 224.326737 
L 353.621185 225.104842 
L 354.345558 225.882947 
L 355.96712 226.661053 
L 356.644529 228.217263 
L 357.023778 228.995368 
L 357.758982 229.773474 
L 358.202886 230.551579 
L 358.294545 231.329684 
L 358.819949 231.329684 
L 359.892335 232.107789 
L 360.18234 232.885895 
L 360.855008 233.664 
L 360.875862 234.442105 
L 361.42665 236.776421 
L 361.447516 237.554526 
L 361.620117 238.332632 
L 361.978222 239.110737 
L 362.275773 240.666947 
L 363.397885 241.445053 
L 364.104954 243.001263 
L 365.565762 243.779368 
L 366.069056 244.557474 
L 367.208222 245.335579 
L 367.885277 246.113684 
L 368.760177 246.891789 
L 369.086777 247.669895 
L 370.453044 248.448 
L 372.118082 249.226105 
L 372.454514 250.782316 
L 373.691414 252.338526 
L 373.799137 253.116632 
L 374.288533 254.672842 
L 374.88648 255.450947 
L 375.222732 259.341474 
L 375.858555 260.897684 
L 377.443703 262.453895 
L 378.16192 264.010105 
L 378.923285 264.788211 
L 379.409133 265.566316 
L 380.248431 266.344421 
L 381.912329 267.122526 
L 382.074231 268.678737 
L 382.699184 269.456842 
L 383.533842 272.569263 
L 385.358207 273.347368 
L 385.531544 274.125474 
L 386.847386 274.903579 
L 387.145362 276.459789 
L 387.388631 277.237895 
L 387.411484 278.016 
L 387.757869 278.794105 
L 388.121297 280.350316 
L 388.580062 281.128421 
L 389.311799 281.906526 
L 389.55278 283.462737 
L 389.79271 285.018947 
L 389.914921 285.797053 
L 390.436976 286.575158 
L 390.995516 288.131368 
L 391.068533 289.687579 
L 391.303251 290.465684 
L 391.410621 291.243789 
L 392.199398 293.578105 
L 392.814627 294.356211 
L 392.845425 295.134316 
L 393.516988 295.912421 
L 393.576641 298.246737 
L 394.230638 299.024842 
L 394.614191 300.581053 
L 394.993696 301.359158 
L 395.429568 302.915368 
L 395.484756 303.693474 
L 395.733321 304.471579 
L 396.520321 305.249684 
L 396.883519 306.027789 
L 398.175437 306.027789 
L 398.487273 306.805895 
L 398.487273 306.805895 
" style="fill:none;stroke:#008000;stroke-linecap:square;stroke-width:1.5;"/>
   </g>
   <g id="patch_3">
    <path d="M 57.6 307.584 
L 57.6 41.472 
" style="fill:none;stroke:#000000;stroke-linecap:square;stroke-linejoin:miter;stroke-width:0.8;"/>
   </g>
   <g id="patch_4">
    <path d="M 414.72 307.584 
L 414.72 41.472 
" style="fill:none;stroke:#000000;stroke-linecap:square;stroke-linejoin:miter;stroke-width:0.8;"/>
   </g>
   <g id="patch_5">
    <path d="M 57.6 307.584 
L 414.72 307.584 
" style="fill:none;stroke:#000000;stroke-linecap:square;stroke-linejoin:miter;stroke-width:0.8;"/>
   </g>
   <g id="patch_6">
    <path d="M 57.6 41.472 
L 414.72 41.472 
" style="fill:none;stroke:#000000;stroke-linecap:square;stroke-linejoin:miter;stroke-width:0.8;"/>
   </g>
   <g id="text_14">
    <!-- Precision vs. Recall -->
    <defs>
     <path d="M 19.671875 64.796875 
L 19.671875 37.40625 
L 32.078125 37.40625 
Q 38.96875 37.40625 42.71875 40.96875 
Q 46.484375 44.53125 46.484375 51.125 
Q 46.484375 57.671875 42.71875 61.234375 
Q 38.96875 64.796875 32.078125 64.796875 
z
M 9.8125 72.90625 
L 32.078125 72.90625 
Q 44.34375 72.90625 50.609375 67.359375 
Q 56.890625 61.8125 56.890625 51.125 
Q 56.890625 40.328125 50.609375 34.8125 
Q 44.34375 29.296875 32.078125 29.296875 
L 19.671875 29.296875 
L 19.671875 0 
L 9.8125 0 
z
" id="DejaVuSans-80"/>
     <path d="M 48.78125 52.59375 
L 48.78125 44.1875 
Q 44.96875 46.296875 41.140625 47.34375 
Q 37.3125 48.390625 33.40625 48.390625 
Q 24.65625 48.390625 19.8125 42.84375 
Q 14.984375 37.3125 14.984375 27.296875 
Q 14.984375 17.28125 19.8125 11.734375 
Q 24.65625 6.203125 33.40625 6.203125 
Q 37.3125 6.203125 41.140625 7.25 
Q 44.96875 8.296875 48.78125 10.40625 
L 48.78125 2.09375 
Q 45.015625 0.34375 40.984375 -0.53125 
Q 36.96875 -1.421875 32.421875 -1.421875 
Q 20.0625 -1.421875 12.78125 6.34375 
Q 5.515625 14.109375 5.515625 27.296875 
Q 5.515625 40.671875 12.859375 48.328125 
Q 20.21875 56 33.015625 56 
Q 37.15625 56 41.109375 55.140625 
Q 45.0625 54.296875 48.78125 52.59375 
z
" id="DejaVuSans-99"/>
     <path d="M 9.421875 54.6875 
L 18.40625 54.6875 
L 18.40625 0 
L 9.421875 0 
z
M 9.421875 75.984375 
L 18.40625 75.984375 
L 18.40625 64.59375 
L 9.421875 64.59375 
z
" id="DejaVuSans-105"/>
     <path d="M 54.890625 33.015625 
L 54.890625 0 
L 45.90625 0 
L 45.90625 32.71875 
Q 45.90625 40.484375 42.875 44.328125 
Q 39.84375 48.1875 33.796875 48.1875 
Q 26.515625 48.1875 22.3125 43.546875 
Q 18.109375 38.921875 18.109375 30.90625 
L 18.109375 0 
L 9.078125 0 
L 9.078125 54.6875 
L 18.109375 54.6875 
L 18.109375 46.1875 
Q 21.34375 51.125 25.703125 53.5625 
Q 30.078125 56 35.796875 56 
Q 45.21875 56 50.046875 50.171875 
Q 54.890625 44.34375 54.890625 33.015625 
z
" id="DejaVuSans-110"/>
     <path id="DejaVuSans-32"/>
     <path d="M 2.984375 54.6875 
L 12.5 54.6875 
L 29.59375 8.796875 
L 46.6875 54.6875 
L 56.203125 54.6875 
L 35.6875 0 
L 23.484375 0 
z
" id="DejaVuSans-118"/>
     <path d="M 44.390625 34.1875 
Q 47.5625 33.109375 50.5625 29.59375 
Q 53.5625 26.078125 56.59375 19.921875 
L 66.609375 0 
L 56 0 
L 46.6875 18.703125 
Q 43.0625 26.03125 39.671875 28.421875 
Q 36.28125 30.8125 30.421875 30.8125 
L 19.671875 30.8125 
L 19.671875 0 
L 9.8125 0 
L 9.8125 72.90625 
L 32.078125 72.90625 
Q 44.578125 72.90625 50.734375 67.671875 
Q 56.890625 62.453125 56.890625 51.90625 
Q 56.890625 45.015625 53.6875 40.46875 
Q 50.484375 35.9375 44.390625 34.1875 
z
M 19.671875 64.796875 
L 19.671875 38.921875 
L 32.078125 38.921875 
Q 39.203125 38.921875 42.84375 42.21875 
Q 46.484375 45.515625 46.484375 51.90625 
Q 46.484375 58.296875 42.84375 61.546875 
Q 39.203125 64.796875 32.078125 64.796875 
z
" id="DejaVuSans-82"/>
     <path d="M 34.28125 27.484375 
Q 23.390625 27.484375 19.1875 25 
Q 14.984375 22.515625 14.984375 16.5 
Q 14.984375 11.71875 18.140625 8.90625 
Q 21.296875 6.109375 26.703125 6.109375 
Q 34.1875 6.109375 38.703125 11.40625 
Q 43.21875 16.703125 43.21875 25.484375 
L 43.21875 27.484375 
z
M 52.203125 31.203125 
L 52.203125 0 
L 43.21875 0 
L 43.21875 8.296875 
Q 40.140625 3.328125 35.546875 0.953125 
Q 30.953125 -1.421875 24.3125 -1.421875 
Q 15.921875 -1.421875 10.953125 3.296875 
Q 6 8.015625 6 15.921875 
Q 6 25.140625 12.171875 29.828125 
Q 18.359375 34.515625 30.609375 34.515625 
L 43.21875 34.515625 
L 43.21875 35.40625 
Q 43.21875 41.609375 39.140625 45 
Q 35.0625 48.390625 27.6875 48.390625 
Q 23 48.390625 18.546875 47.265625 
Q 14.109375 46.140625 10.015625 43.890625 
L 10.015625 52.203125 
Q 14.9375 54.109375 19.578125 55.046875 
Q 24.21875 56 28.609375 56 
Q 40.484375 56 46.34375 49.84375 
Q 52.203125 43.703125 52.203125 31.203125 
z
" id="DejaVuSans-97"/>
    </defs>
    <g transform="translate(178.59 35.472)scale(0.12 -0.12)">
     <use xlink:href="#DejaVuSans-80"/>
     <use x="60.287109" xlink:href="#DejaVuSans-114"/>
     <use x="101.369141" xlink:href="#DejaVuSans-101"/>
     <use x="162.892578" xlink:href="#DejaVuSans-99"/>
     <use x="217.873047" xlink:href="#DejaVuSans-105"/>
     <use x="245.65625" xlink:href="#DejaVuSans-115"/>
     <use x="297.755859" xlink:href="#DejaVuSans-105"/>
     <use x="325.539062" xlink:href="#DejaVuSans-111"/>
     <use x="386.720703" xlink:href="#DejaVuSans-110"/>
     <use x="450.099609" xlink:href="#DejaVuSans-32"/>
     <use x="481.886719" xlink:href="#DejaVuSans-118"/>
     <use x="541.066406" xlink:href="#DejaVuSans-115"/>
     <use x="593.166016" xlink:href="#DejaVuSans-46"/>
     <use x="624.953125" xlink:href="#DejaVuSans-32"/>
     <use x="656.740234" xlink:href="#DejaVuSans-82"/>
     <use x="726.160156" xlink:href="#DejaVuSans-101"/>
     <use x="787.683594" xlink:href="#DejaVuSans-99"/>
     <use x="842.664062" xlink:href="#DejaVuSans-97"/>
     <use x="903.943359" xlink:href="#DejaVuSans-108"/>
     <use x="931.726562" xlink:href="#DejaVuSans-108"/>
    </g>
   </g>
   <g id="legend_1">
    <g id="patch_7">
     <path d="M 64.6 302.584 
L 141.609375 302.584 
Q 143.609375 302.584 143.609375 300.584 
L 143.609375 272.22775 
Q 143.609375 270.22775 141.609375 270.22775 
L 64.6 270.22775 
Q 62.6 270.22775 62.6 272.22775 
L 62.6 300.584 
Q 62.6 302.584 64.6 302.584 
z
" style="fill:#ffffff;opacity:0.8;stroke:#cccccc;stroke-linejoin:miter;"/>
    </g>
    <g id="line2d_15">
     <path d="M 66.6 278.326187 
L 86.6 278.326187 
" style="fill:none;stroke:#0000ff;stroke-dasharray:5.55,2.4;stroke-dashoffset:0;stroke-width:1.5;"/>
    </g>
    <g id="line2d_16"/>
    <g id="text_15">
     <!-- Precision -->
     <g transform="translate(94.6 281.826187)scale(0.1 -0.1)">
      <use xlink:href="#DejaVuSans-80"/>
      <use x="60.287109" xlink:href="#DejaVuSans-114"/>
      <use x="101.369141" xlink:href="#DejaVuSans-101"/>
      <use x="162.892578" xlink:href="#DejaVuSans-99"/>
      <use x="217.873047" xlink:href="#DejaVuSans-105"/>
      <use x="245.65625" xlink:href="#DejaVuSans-115"/>
      <use x="297.755859" xlink:href="#DejaVuSans-105"/>
      <use x="325.539062" xlink:href="#DejaVuSans-111"/>
      <use x="386.720703" xlink:href="#DejaVuSans-110"/>
     </g>
    </g>
    <g id="line2d_17">
     <path d="M 66.6 293.004312 
L 86.6 293.004312 
" style="fill:none;stroke:#008000;stroke-linecap:square;stroke-width:1.5;"/>
    </g>
    <g id="line2d_18"/>
    <g id="text_16">
     <!-- Recall -->
     <g transform="translate(94.6 296.504312)scale(0.1 -0.1)">
      <use xlink:href="#DejaVuSans-82"/>
      <use x="69.419922" xlink:href="#DejaVuSans-101"/>
      <use x="130.943359" xlink:href="#DejaVuSans-99"/>
      <use x="185.923828" xlink:href="#DejaVuSans-97"/>
      <use x="247.203125" xlink:href="#DejaVuSans-108"/>
      <use x="274.986328" xlink:href="#DejaVuSans-108"/>
     </g>
    </g>
   </g>
  </g>
 </g>
 <defs>
  <clipPath id="p0e0c2cd9fc">
   <rect height="266.112" width="357.12" x="57.6" y="41.472"/>
  </clipPath>
 </defs>
</svg>
