<?xml version="1.0" encoding="utf-8" standalone="no"?>
<!DOCTYPE svg PUBLIC "-//W3C//DTD SVG 1.1//EN"
  "http://www.w3.org/Graphics/SVG/1.1/DTD/svg11.dtd">
<!-- Created with matplotlib (https://matplotlib.org/) -->
<svg height="345.6pt" version="1.1" viewBox="0 0 460.8 345.6" width="460.8pt" xmlns="http://www.w3.org/2000/svg" xmlns:xlink="http://www.w3.org/1999/xlink">
 <defs>
  <style type="text/css">
*{stroke-linecap:butt;stroke-linejoin:round;}
  </style>
 </defs>
 <g id="figure_1">
  <g id="patch_1">
   <path d="M 0 345.6 
L 460.8 345.6 
L 460.8 0 
L 0 0 
z
" style="fill:#ffffff;"/>
  </g>
  <g id="axes_1">
   <g id="patch_2">
    <path d="M 57.6 307.584 
L 414.72 307.584 
L 414.72 41.472 
L 57.6 41.472 
z
" style="fill:#ffffff;"/>
   </g>
   <g id="matplotlib.axis_1">
    <g id="xtick_1">
     <g id="line2d_1">
      <defs>
       <path d="M 0 0 
L 0 3.5 
" id="mcbe012bf47" style="stroke:#000000;stroke-width:0.8;"/>
      </defs>
      <g>
       <use style="stroke:#000000;stroke-width:0.8;" x="73.830916" xlink:href="#mcbe012bf47" y="307.584"/>
      </g>
     </g>
     <g id="text_1">
      <!-- 0.0 -->
      <defs>
       <path d="M 31.78125 66.40625 
Q 24.171875 66.40625 20.328125 58.90625 
Q 16.5 51.421875 16.5 36.375 
Q 16.5 21.390625 20.328125 13.890625 
Q 24.171875 6.390625 31.78125 6.390625 
Q 39.453125 6.390625 43.28125 13.890625 
Q 47.125 21.390625 47.125 36.375 
Q 47.125 51.421875 43.28125 58.90625 
Q 39.453125 66.40625 31.78125 66.40625 
z
M 31.78125 74.21875 
Q 44.046875 74.21875 50.515625 64.515625 
Q 56.984375 54.828125 56.984375 36.375 
Q 56.984375 17.96875 50.515625 8.265625 
Q 44.046875 -1.421875 31.78125 -1.421875 
Q 19.53125 -1.421875 13.0625 8.265625 
Q 6.59375 17.96875 6.59375 36.375 
Q 6.59375 54.828125 13.0625 64.515625 
Q 19.53125 74.21875 31.78125 74.21875 
z
" id="DejaVuSans-48"/>
       <path d="M 10.6875 12.40625 
L 21 12.40625 
L 21 0 
L 10.6875 0 
z
" id="DejaVuSans-46"/>
      </defs>
      <g transform="translate(65.879353 322.182437)scale(0.1 -0.1)">
       <use xlink:href="#DejaVuSans-48"/>
       <use x="63.623047" xlink:href="#DejaVuSans-46"/>
       <use x="95.410156" xlink:href="#DejaVuSans-48"/>
      </g>
     </g>
    </g>
    <g id="xtick_2">
     <g id="line2d_2">
      <g>
       <use style="stroke:#000000;stroke-width:0.8;" x="138.762187" xlink:href="#mcbe012bf47" y="307.584"/>
      </g>
     </g>
     <g id="text_2">
      <!-- 0.2 -->
      <defs>
       <path d="M 19.1875 8.296875 
L 53.609375 8.296875 
L 53.609375 0 
L 7.328125 0 
L 7.328125 8.296875 
Q 12.9375 14.109375 22.625 23.890625 
Q 32.328125 33.6875 34.8125 36.53125 
Q 39.546875 41.84375 41.421875 45.53125 
Q 43.3125 49.21875 43.3125 52.78125 
Q 43.3125 58.59375 39.234375 62.25 
Q 35.15625 65.921875 28.609375 65.921875 
Q 23.96875 65.921875 18.8125 64.3125 
Q 13.671875 62.703125 7.8125 59.421875 
L 7.8125 69.390625 
Q 13.765625 71.78125 18.9375 73 
Q 24.125 74.21875 28.421875 74.21875 
Q 39.75 74.21875 46.484375 68.546875 
Q 53.21875 62.890625 53.21875 53.421875 
Q 53.21875 48.921875 51.53125 44.890625 
Q 49.859375 40.875 45.40625 35.40625 
Q 44.1875 33.984375 37.640625 27.21875 
Q 31.109375 20.453125 19.1875 8.296875 
z
" id="DejaVuSans-50"/>
      </defs>
      <g transform="translate(130.810625 322.182437)scale(0.1 -0.1)">
       <use xlink:href="#DejaVuSans-48"/>
       <use x="63.623047" xlink:href="#DejaVuSans-46"/>
       <use x="95.410156" xlink:href="#DejaVuSans-50"/>
      </g>
     </g>
    </g>
    <g id="xtick_3">
     <g id="line2d_3">
      <g>
       <use style="stroke:#000000;stroke-width:0.8;" x="203.693459" xlink:href="#mcbe012bf47" y="307.584"/>
      </g>
     </g>
     <g id="text_3">
      <!-- 0.4 -->
      <defs>
       <path d="M 37.796875 64.3125 
L 12.890625 25.390625 
L 37.796875 25.390625 
z
M 35.203125 72.90625 
L 47.609375 72.90625 
L 47.609375 25.390625 
L 58.015625 25.390625 
L 58.015625 17.1875 
L 47.609375 17.1875 
L 47.609375 0 
L 37.796875 0 
L 37.796875 17.1875 
L 4.890625 17.1875 
L 4.890625 26.703125 
z
" id="DejaVuSans-52"/>
      </defs>
      <g transform="translate(195.741896 322.182437)scale(0.1 -0.1)">
       <use xlink:href="#DejaVuSans-48"/>
       <use x="63.623047" xlink:href="#DejaVuSans-46"/>
       <use x="95.410156" xlink:href="#DejaVuSans-52"/>
      </g>
     </g>
    </g>
    <g id="xtick_4">
     <g id="line2d_4">
      <g>
       <use style="stroke:#000000;stroke-width:0.8;" x="268.62473" xlink:href="#mcbe012bf47" y="307.584"/>
      </g>
     </g>
     <g id="text_4">
      <!-- 0.6 -->
      <defs>
       <path d="M 33.015625 40.375 
Q 26.375 40.375 22.484375 35.828125 
Q 18.609375 31.296875 18.609375 23.390625 
Q 18.609375 15.53125 22.484375 10.953125 
Q 26.375 6.390625 33.015625 6.390625 
Q 39.65625 6.390625 43.53125 10.953125 
Q 47.40625 15.53125 47.40625 23.390625 
Q 47.40625 31.296875 43.53125 35.828125 
Q 39.65625 40.375 33.015625 40.375 
z
M 52.59375 71.296875 
L 52.59375 62.3125 
Q 48.875 64.0625 45.09375 64.984375 
Q 41.3125 65.921875 37.59375 65.921875 
Q 27.828125 65.921875 22.671875 59.328125 
Q 17.53125 52.734375 16.796875 39.40625 
Q 19.671875 43.65625 24.015625 45.921875 
Q 28.375 48.1875 33.59375 48.1875 
Q 44.578125 48.1875 50.953125 41.515625 
Q 57.328125 34.859375 57.328125 23.390625 
Q 57.328125 12.15625 50.6875 5.359375 
Q 44.046875 -1.421875 33.015625 -1.421875 
Q 20.359375 -1.421875 13.671875 8.265625 
Q 6.984375 17.96875 6.984375 36.375 
Q 6.984375 53.65625 15.1875 63.9375 
Q 23.390625 74.21875 37.203125 74.21875 
Q 40.921875 74.21875 44.703125 73.484375 
Q 48.484375 72.75 52.59375 71.296875 
z
" id="DejaVuSans-54"/>
      </defs>
      <g transform="translate(260.673167 322.182437)scale(0.1 -0.1)">
       <use xlink:href="#DejaVuSans-48"/>
       <use x="63.623047" xlink:href="#DejaVuSans-46"/>
       <use x="95.410156" xlink:href="#DejaVuSans-54"/>
      </g>
     </g>
    </g>
    <g id="xtick_5">
     <g id="line2d_5">
      <g>
       <use style="stroke:#000000;stroke-width:0.8;" x="333.556001" xlink:href="#mcbe012bf47" y="307.584"/>
      </g>
     </g>
     <g id="text_5">
      <!-- 0.8 -->
      <defs>
       <path d="M 31.78125 34.625 
Q 24.75 34.625 20.71875 30.859375 
Q 16.703125 27.09375 16.703125 20.515625 
Q 16.703125 13.921875 20.71875 10.15625 
Q 24.75 6.390625 31.78125 6.390625 
Q 38.8125 6.390625 42.859375 10.171875 
Q 46.921875 13.96875 46.921875 20.515625 
Q 46.921875 27.09375 42.890625 30.859375 
Q 38.875 34.625 31.78125 34.625 
z
M 21.921875 38.8125 
Q 15.578125 40.375 12.03125 44.71875 
Q 8.5 49.078125 8.5 55.328125 
Q 8.5 64.0625 14.71875 69.140625 
Q 20.953125 74.21875 31.78125 74.21875 
Q 42.671875 74.21875 48.875 69.140625 
Q 55.078125 64.0625 55.078125 55.328125 
Q 55.078125 49.078125 51.53125 44.71875 
Q 48 40.375 41.703125 38.8125 
Q 48.828125 37.15625 52.796875 32.3125 
Q 56.78125 27.484375 56.78125 20.515625 
Q 56.78125 9.90625 50.3125 4.234375 
Q 43.84375 -1.421875 31.78125 -1.421875 
Q 19.734375 -1.421875 13.25 4.234375 
Q 6.78125 9.90625 6.78125 20.515625 
Q 6.78125 27.484375 10.78125 32.3125 
Q 14.796875 37.15625 21.921875 38.8125 
z
M 18.3125 54.390625 
Q 18.3125 48.734375 21.84375 45.5625 
Q 25.390625 42.390625 31.78125 42.390625 
Q 38.140625 42.390625 41.71875 45.5625 
Q 45.3125 48.734375 45.3125 54.390625 
Q 45.3125 60.0625 41.71875 63.234375 
Q 38.140625 66.40625 31.78125 66.40625 
Q 25.390625 66.40625 21.84375 63.234375 
Q 18.3125 60.0625 18.3125 54.390625 
z
" id="DejaVuSans-56"/>
      </defs>
      <g transform="translate(325.604439 322.182437)scale(0.1 -0.1)">
       <use xlink:href="#DejaVuSans-48"/>
       <use x="63.623047" xlink:href="#DejaVuSans-46"/>
       <use x="95.410156" xlink:href="#DejaVuSans-56"/>
      </g>
     </g>
    </g>
    <g id="xtick_6">
     <g id="line2d_6">
      <g>
       <use style="stroke:#000000;stroke-width:0.8;" x="398.487273" xlink:href="#mcbe012bf47" y="307.584"/>
      </g>
     </g>
     <g id="text_6">
      <!-- 1.0 -->
      <defs>
       <path d="M 12.40625 8.296875 
L 28.515625 8.296875 
L 28.515625 63.921875 
L 10.984375 60.40625 
L 10.984375 69.390625 
L 28.421875 72.90625 
L 38.28125 72.90625 
L 38.28125 8.296875 
L 54.390625 8.296875 
L 54.390625 0 
L 12.40625 0 
z
" id="DejaVuSans-49"/>
      </defs>
      <g transform="translate(390.53571 322.182437)scale(0.1 -0.1)">
       <use xlink:href="#DejaVuSans-49"/>
       <use x="63.623047" xlink:href="#DejaVuSans-46"/>
       <use x="95.410156" xlink:href="#DejaVuSans-48"/>
      </g>
     </g>
    </g>
    <g id="text_7">
     <!-- Threshold -->
     <defs>
      <path d="M -0.296875 72.90625 
L 61.375 72.90625 
L 61.375 64.59375 
L 35.5 64.59375 
L 35.5 0 
L 25.59375 0 
L 25.59375 64.59375 
L -0.296875 64.59375 
z
" id="DejaVuSans-84"/>
      <path d="M 54.890625 33.015625 
L 54.890625 0 
L 45.90625 0 
L 45.90625 32.71875 
Q 45.90625 40.484375 42.875 44.328125 
Q 39.84375 48.1875 33.796875 48.1875 
Q 26.515625 48.1875 22.3125 43.546875 
Q 18.109375 38.921875 18.109375 30.90625 
L 18.109375 0 
L 9.078125 0 
L 9.078125 75.984375 
L 18.109375 75.984375 
L 18.109375 46.1875 
Q 21.34375 51.125 25.703125 53.5625 
Q 30.078125 56 35.796875 56 
Q 45.21875 56 50.046875 50.171875 
Q 54.890625 44.34375 54.890625 33.015625 
z
" id="DejaVuSans-104"/>
      <path d="M 41.109375 46.296875 
Q 39.59375 47.171875 37.8125 47.578125 
Q 36.03125 48 33.890625 48 
Q 26.265625 48 22.1875 43.046875 
Q 18.109375 38.09375 18.109375 28.8125 
L 18.109375 0 
L 9.078125 0 
L 9.078125 54.6875 
L 18.109375 54.6875 
L 18.109375 46.1875 
Q 20.953125 51.171875 25.484375 53.578125 
Q 30.03125 56 36.53125 56 
Q 37.453125 56 38.578125 55.875 
Q 39.703125 55.765625 41.0625 55.515625 
z
" id="DejaVuSans-114"/>
      <path d="M 56.203125 29.59375 
L 56.203125 25.203125 
L 14.890625 25.203125 
Q 15.484375 15.921875 20.484375 11.0625 
Q 25.484375 6.203125 34.421875 6.203125 
Q 39.59375 6.203125 44.453125 7.46875 
Q 49.3125 8.734375 54.109375 11.28125 
L 54.109375 2.78125 
Q 49.265625 0.734375 44.1875 -0.34375 
Q 39.109375 -1.421875 33.890625 -1.421875 
Q 20.796875 -1.421875 13.15625 6.1875 
Q 5.515625 13.8125 5.515625 26.8125 
Q 5.515625 40.234375 12.765625 48.109375 
Q 20.015625 56 32.328125 56 
Q 43.359375 56 49.78125 48.890625 
Q 56.203125 41.796875 56.203125 29.59375 
z
M 47.21875 32.234375 
Q 47.125 39.59375 43.09375 43.984375 
Q 39.0625 48.390625 32.421875 48.390625 
Q 24.90625 48.390625 20.390625 44.140625 
Q 15.875 39.890625 15.1875 32.171875 
z
" id="DejaVuSans-101"/>
      <path d="M 44.28125 53.078125 
L 44.28125 44.578125 
Q 40.484375 46.53125 36.375 47.5 
Q 32.28125 48.484375 27.875 48.484375 
Q 21.1875 48.484375 17.84375 46.4375 
Q 14.5 44.390625 14.5 40.28125 
Q 14.5 37.15625 16.890625 35.375 
Q 19.28125 33.59375 26.515625 31.984375 
L 29.59375 31.296875 
Q 39.15625 29.25 43.1875 25.515625 
Q 47.21875 21.78125 47.21875 15.09375 
Q 47.21875 7.46875 41.1875 3.015625 
Q 35.15625 -1.421875 24.609375 -1.421875 
Q 20.21875 -1.421875 15.453125 -0.5625 
Q 10.6875 0.296875 5.421875 2 
L 5.421875 11.28125 
Q 10.40625 8.6875 15.234375 7.390625 
Q 20.0625 6.109375 24.8125 6.109375 
Q 31.15625 6.109375 34.5625 8.28125 
Q 37.984375 10.453125 37.984375 14.40625 
Q 37.984375 18.0625 35.515625 20.015625 
Q 33.0625 21.96875 24.703125 23.78125 
L 21.578125 24.515625 
Q 13.234375 26.265625 9.515625 29.90625 
Q 5.8125 33.546875 5.8125 39.890625 
Q 5.8125 47.609375 11.28125 51.796875 
Q 16.75 56 26.8125 56 
Q 31.78125 56 36.171875 55.265625 
Q 40.578125 54.546875 44.28125 53.078125 
z
" id="DejaVuSans-115"/>
      <path d="M 30.609375 48.390625 
Q 23.390625 48.390625 19.1875 42.75 
Q 14.984375 37.109375 14.984375 27.296875 
Q 14.984375 17.484375 19.15625 11.84375 
Q 23.34375 6.203125 30.609375 6.203125 
Q 37.796875 6.203125 41.984375 11.859375 
Q 46.1875 17.53125 46.1875 27.296875 
Q 46.1875 37.015625 41.984375 42.703125 
Q 37.796875 48.390625 30.609375 48.390625 
z
M 30.609375 56 
Q 42.328125 56 49.015625 48.375 
Q 55.71875 40.765625 55.71875 27.296875 
Q 55.71875 13.875 49.015625 6.21875 
Q 42.328125 -1.421875 30.609375 -1.421875 
Q 18.84375 -1.421875 12.171875 6.21875 
Q 5.515625 13.875 5.515625 27.296875 
Q 5.515625 40.765625 12.171875 48.375 
Q 18.84375 56 30.609375 56 
z
" id="DejaVuSans-111"/>
      <path d="M 9.421875 75.984375 
L 18.40625 75.984375 
L 18.40625 0 
L 9.421875 0 
z
" id="DejaVuSans-108"/>
      <path d="M 45.40625 46.390625 
L 45.40625 75.984375 
L 54.390625 75.984375 
L 54.390625 0 
L 45.40625 0 
L 45.40625 8.203125 
Q 42.578125 3.328125 38.25 0.953125 
Q 33.9375 -1.421875 27.875 -1.421875 
Q 17.96875 -1.421875 11.734375 6.484375 
Q 5.515625 14.40625 5.515625 27.296875 
Q 5.515625 40.1875 11.734375 48.09375 
Q 17.96875 56 27.875 56 
Q 33.9375 56 38.25 53.625 
Q 42.578125 51.265625 45.40625 46.390625 
z
M 14.796875 27.296875 
Q 14.796875 17.390625 18.875 11.75 
Q 22.953125 6.109375 30.078125 6.109375 
Q 37.203125 6.109375 41.296875 11.75 
Q 45.40625 17.390625 45.40625 27.296875 
Q 45.40625 37.203125 41.296875 42.84375 
Q 37.203125 48.484375 30.078125 48.484375 
Q 22.953125 48.484375 18.875 42.84375 
Q 14.796875 37.203125 14.796875 27.296875 
z
" id="DejaVuSans-100"/>
     </defs>
     <g transform="translate(211.410781 335.860562)scale(0.1 -0.1)">
      <use xlink:href="#DejaVuSans-84"/>
      <use x="61.083984" xlink:href="#DejaVuSans-104"/>
      <use x="124.462891" xlink:href="#DejaVuSans-114"/>
      <use x="165.544922" xlink:href="#DejaVuSans-101"/>
      <use x="227.068359" xlink:href="#DejaVuSans-115"/>
      <use x="279.167969" xlink:href="#DejaVuSans-104"/>
      <use x="342.546875" xlink:href="#DejaVuSans-111"/>
      <use x="403.728516" xlink:href="#DejaVuSans-108"/>
      <use x="431.511719" xlink:href="#DejaVuSans-100"/>
     </g>
    </g>
   </g>
   <g id="matplotlib.axis_2">
    <g id="ytick_1">
     <g id="line2d_7">
      <defs>
       <path d="M 0 0 
L -3.5 0 
" id="m0443e3c3ee" style="stroke:#000000;stroke-width:0.8;"/>
      </defs>
      <g>
       <use style="stroke:#000000;stroke-width:0.8;" x="57.6" xlink:href="#m0443e3c3ee" y="307.584"/>
      </g>
     </g>
     <g id="text_8">
      <!-- 0.0 -->
      <g transform="translate(34.696875 311.383219)scale(0.1 -0.1)">
       <use xlink:href="#DejaVuSans-48"/>
       <use x="63.623047" xlink:href="#DejaVuSans-46"/>
       <use x="95.410156" xlink:href="#DejaVuSans-48"/>
      </g>
     </g>
    </g>
    <g id="ytick_2">
     <g id="line2d_8">
      <g>
       <use style="stroke:#000000;stroke-width:0.8;" x="57.6" xlink:href="#m0443e3c3ee" y="254.3616"/>
      </g>
     </g>
     <g id="text_9">
      <!-- 0.2 -->
      <g transform="translate(34.696875 258.160819)scale(0.1 -0.1)">
       <use xlink:href="#DejaVuSans-48"/>
       <use x="63.623047" xlink:href="#DejaVuSans-46"/>
       <use x="95.410156" xlink:href="#DejaVuSans-50"/>
      </g>
     </g>
    </g>
    <g id="ytick_3">
     <g id="line2d_9">
      <g>
       <use style="stroke:#000000;stroke-width:0.8;" x="57.6" xlink:href="#m0443e3c3ee" y="201.1392"/>
      </g>
     </g>
     <g id="text_10">
      <!-- 0.4 -->
      <g transform="translate(34.696875 204.938419)scale(0.1 -0.1)">
       <use xlink:href="#DejaVuSans-48"/>
       <use x="63.623047" xlink:href="#DejaVuSans-46"/>
       <use x="95.410156" xlink:href="#DejaVuSans-52"/>
      </g>
     </g>
    </g>
    <g id="ytick_4">
     <g id="line2d_10">
      <g>
       <use style="stroke:#000000;stroke-width:0.8;" x="57.6" xlink:href="#m0443e3c3ee" y="147.9168"/>
      </g>
     </g>
     <g id="text_11">
      <!-- 0.6 -->
      <g transform="translate(34.696875 151.716019)scale(0.1 -0.1)">
       <use xlink:href="#DejaVuSans-48"/>
       <use x="63.623047" xlink:href="#DejaVuSans-46"/>
       <use x="95.410156" xlink:href="#DejaVuSans-54"/>
      </g>
     </g>
    </g>
    <g id="ytick_5">
     <g id="line2d_11">
      <g>
       <use style="stroke:#000000;stroke-width:0.8;" x="57.6" xlink:href="#m0443e3c3ee" y="94.6944"/>
      </g>
     </g>
     <g id="text_12">
      <!-- 0.8 -->
      <g transform="translate(34.696875 98.493619)scale(0.1 -0.1)">
       <use xlink:href="#DejaVuSans-48"/>
       <use x="63.623047" xlink:href="#DejaVuSans-46"/>
       <use x="95.410156" xlink:href="#DejaVuSans-56"/>
      </g>
     </g>
    </g>
    <g id="ytick_6">
     <g id="line2d_12">
      <g>
       <use style="stroke:#000000;stroke-width:0.8;" x="57.6" xlink:href="#m0443e3c3ee" y="41.472"/>
      </g>
     </g>
     <g id="text_13">
      <!-- 1.0 -->
      <g transform="translate(34.696875 45.271219)scale(0.1 -0.1)">
       <use xlink:href="#DejaVuSans-49"/>
       <use x="63.623047" xlink:href="#DejaVuSans-46"/>
       <use x="95.410156" xlink:href="#DejaVuSans-48"/>
      </g>
     </g>
    </g>
   </g>
   <g id="line2d_13">
    <path clip-path="url(#p0e520d733a)" d="M 73.832727 203.927617 
L 73.833857 204.112857 
L 73.896952 202.919419 
L 73.913918 203.105848 
L 73.945445 203.292708 
L 74.000062 203.051013 
L 74.125033 202.808195 
L 74.17475 202.686363 
L 74.432174 202.441846 
L 76.587258 201.825538 
L 76.731611 201.701408 
L 77.369665 201.452273 
L 78.286526 201.829585 
L 80.736133 201.704727 
L 80.837022 201.579574 
L 82.032403 201.328379 
L 83.75653 201.07599 
L 84.040086 200.311579 
L 84.05487 199.795846 
L 84.160939 199.917913 
L 84.253233 199.97939 
L 84.646749 198.913417 
L 84.672666 199.10731 
L 84.704127 198.705048 
L 85.057999 196.704 
L 85.182001 195.857588 
L 85.256797 195.429517 
L 85.470216 192.790588 
L 85.510507 192.640335 
L 85.515428 192.838459 
L 85.525136 193.037102 
L 85.607934 192.527618 
L 85.670609 192.068005 
L 86.05063 189.189818 
L 86.09707 188.698556 
L 86.217936 188.533895 
L 86.223679 188.737864 
L 86.298403 187.740554 
L 86.384085 186.726364 
L 86.598909 186.384475 
L 86.629838 186.589734 
L 86.631747 186.795574 
L 86.672965 186.279385 
L 86.753486 185.9328 
L 86.929953 184.881061 
L 87.18123 183.450122 
L 87.197908 183.476211 
L 87.283221 182.746165 
L 87.420762 182.007479 
L 87.875737 177.584417 
L 87.882422 177.793178 
L 87.960576 177.19322 
L 87.963448 177.402667 
L 88.270242 176.80423 
L 88.318901 177.015028 
L 88.336309 176.811332 
L 88.694036 175.36747 
L 88.958192 175.158597 
L 89.01731 175.370127 
L 89.052268 175.160596 
L 89.149388 174.315789 
L 89.308693 173.889331 
L 89.365594 174.101538 
L 89.637064 173.456696 
L 90.142299 173.240361 
L 90.771226 171.706258 
L 91.250181 171.038007 
L 91.66703 169.665488 
L 92.130283 169.878789 
L 92.328717 170.0928 
L 92.420717 168.469801 
L 92.647407 167.525053 
L 93.342736 167.04785 
L 93.61295 166.808027 
L 94.011657 167.022277 
L 94.11656 166.540075 
L 94.367442 166.754969 
L 94.583836 166.512578 
L 94.646939 166.728166 
L 94.976936 166.240775 
L 95.029037 165.995813 
L 95.386497 165.503332 
L 95.465414 165.007414 
L 95.906887 164.758154 
L 96.00935 165.626366 
L 96.110133 164.872609 
L 96.618819 164.110804 
L 96.784139 163.041151 
L 97.254789 162.475826 
L 97.299733 162.212472 
L 97.384775 162.432 
L 97.391511 162.167607 
L 97.760673 161.902248 
L 97.881675 162.122413 
L 97.926079 161.856 
L 98.022901 162.076888 
L 98.184999 161.809412 
L 98.583321 161.54095 
L 98.692063 160.7296 
L 99.053329 160.457143 
L 99.083956 160.678305 
L 99.149235 160.404737 
L 99.500996 159.521684 
L 99.841974 158.962958 
L 99.915355 157.83276 
L 100.100214 157.54752 
L 100.268564 157.195034 
L 100.500493 156.616615 
L 100.515447 156.03373 
L 100.951319 155.150913 
L 101.588493 154.85435 
L 101.851154 154.556632 
L 102.097253 153.656471 
L 102.533448 153.354059 
L 102.857167 152.439652 
L 103.413398 152.132436 
L 103.729345 151.824 
L 103.934487 150.891305 
L 104.011028 151.110144 
L 104.333075 150.796569 
L 104.417828 150.481735 
L 104.965585 150.384774 
L 105.115234 149.74834 
L 105.50884 149.428187 
L 105.984505 148.134479 
L 107.690102 147.807738 
L 108.297375 147.479655 
L 108.398603 146.819431 
L 109.218308 146.153739 
L 111.353247 146.370921 
L 113.174699 146.035759 
L 113.926549 145.6992 
L 114.256176 145.361236 
L 116.688378 145.021858 
L 117.132547 144.681057 
L 117.850851 144.338824 
L 119.187384 143.995149 
L 119.26708 143.650025 
L 119.4346 143.866047 
L 120.820738 143.170854 
L 121.839998 142.821038 
L 122.127984 142.469731 
L 122.618616 142.685538 
L 122.812379 142.332437 
L 122.980461 142.548876 
L 123.738128 142.193961 
L 123.813189 141.837517 
L 123.842671 142.054289 
L 124.011485 141.696 
L 124.012602 141.913406 
L 124.559039 141.553252 
L 124.633217 141.191529 
L 125.164408 140.828227 
L 125.224889 140.463335 
L 125.617863 140.096842 
L 125.61909 139.728738 
L 126.745181 138.987656 
L 127.449704 139.420098 
L 127.450996 138.671038 
L 127.805272 138.294 
L 127.988325 138.510604 
L 128.521823 138.131516 
L 129.530221 137.750724 
L 129.590966 137.967568 
L 129.780929 138.185391 
L 130.290897 137.802136 
L 130.534587 137.417143 
L 132.15821 137.6352 
L 132.451664 137.854251 
L 135.02214 137.46674 
L 135.795002 137.686407 
L 135.891008 137.296734 
L 136.817053 137.517021 
L 139.378377 137.125161 
L 140.047195 137.346069 
L 141.388515 136.952 
L 141.661906 136.556102 
L 142.215732 136.777228 
L 142.816599 136.379077 
L 144.843374 136.600822 
L 145.193246 136.200393 
L 145.530072 136.422761 
L 146.820887 136.646174 
L 146.860148 136.870642 
L 148.85296 136.467064 
L 149.940547 136.061573 
L 150.935219 135.2448 
L 151.20392 135.468601 
L 151.216284 135.056842 
L 151.552508 135.281266 
L 151.596841 134.867077 
L 151.771278 135.092125 
L 153.779132 135.318261 
L 154.745012 134.901153 
L 155.441707 135.355796 
L 155.596968 134.935727 
L 156.68819 135.164244 
L 156.984978 134.741647 
L 157.462813 134.316973 
L 160.626728 133.890207 
L 160.686037 134.1184 
L 161.453329 133.257529 
L 161.731442 133.715312 
L 162.890305 133.28064 
L 163.498685 132.843789 
L 163.603518 132.404744 
L 164.619526 131.963486 
L 164.970046 131.52 
L 165.548118 131.74797 
L 165.569692 131.977096 
L 165.876411 131.53026 
L 166.008612 131.081143 
L 167.072498 130.629729 
L 167.774316 130.176 
L 167.996733 130.404031 
L 169.516157 129.947381 
L 169.544106 129.488372 
L 170.497934 129.026984 
L 171.991256 128.5632 
L 172.06763 128.79 
L 172.426743 127.853906 
L 172.694533 127.382173 
L 173.11755 127.608253 
L 173.41318 127.133383 
L 173.413609 127.36 
L 174.034853 126.881952 
L 176.465748 125.918208 
L 177.737364 124.944129 
L 177.810741 124.453161 
L 179.462772 123.959547 
L 179.747851 123.463265 
L 182.014312 122.462609 
L 182.543481 121.958191 
L 184.818083 122.178098 
L 185.914726 121.670137 
L 186.69871 121.159385 
L 187.551206 121.378909 
L 190.683418 120.347302 
L 191.825141 119.8272 
L 193.682318 120.04546 
L 194.144364 120.264939 
L 197.245715 119.740235 
L 201.463848 119.212584 
L 202.954078 118.681961 
L 204.973308 118.148339 
L 214.674844 117.072 
L 216.484617 117.287385 
L 220.769503 116.74368 
L 223.703328 116.959358 
L 225.62353 116.411586 
L 235.140924 116.62755 
L 237.083798 116.075653 
L 239.791574 116.291896 
L 241.761739 115.735814 
L 243.931456 114.613895 
L 248.272989 114.048 
L 249.169103 114.261459 
L 252.201598 114.476177 
L 253.691267 113.904852 
L 253.79078 114.119786 
L 254.586562 113.544 
L 254.775664 112.964776 
L 255.116248 113.178826 
L 256.016681 112.595027 
L 256.023583 112.809253 
L 256.159229 112.22081 
L 257.030957 112.4352 
L 257.174825 112.650894 
L 257.725945 112.867902 
L 259.027714 112.27244 
L 259.206761 112.48962 
L 260.964518 112.928 
L 261.267458 112.32535 
L 261.733481 111.718957 
L 262.020972 111.937794 
L 262.07484 112.158 
L 262.167269 111.545379 
L 262.343344 111.765736 
L 262.386953 111.148013 
L 262.855508 110.52638 
L 267.506573 109.271236 
L 267.671658 109.487847 
L 269.92401 108.852923 
L 270.120307 108.213916 
L 270.811189 107.570787 
L 270.882336 106.923495 
L 271.367523 106.272 
L 271.77169 106.695529 
L 272.087827 106.036879 
L 272.181226 106.249263 
L 272.730786 106.46305 
L 273.351948 105.126698 
L 273.609958 105.33888 
L 273.64159 105.552482 
L 273.883442 104.874523 
L 273.963387 104.192 
L 275.378836 103.504865 
L 275.741395 102.813071 
L 276.311662 102.116571 
L 276.939528 100.200166 
L 277.047207 99.482574 
L 277.275482 99.684 
L 277.709822 98.95961 
L 280.272161 99.160615 
L 280.645902 99.363032 
L 281.560517 98.629859 
L 282.983679 97.891505 
L 283.749683 98.091574 
L 284.319346 97.34605 
L 284.629418 96.5952 
L 284.629847 96.792774 
L 285.185006 96.99177 
L 285.43475 96.231509 
L 286.645426 96.62976 
L 288.385951 96.831066 
L 288.440084 97.033846 
L 289.668108 97.443897 
L 290.231566 96.6656 
L 291.527261 95.881517 
L 291.542201 96.084537 
L 293.195505 96.289079 
L 294.445612 95.494737 
L 295.214427 95.698596 
L 295.922733 94.896 
L 295.962485 95.099133 
L 296.473041 95.303817 
L 296.485669 94.490483 
L 297.368121 94.899892 
L 298.368709 95.106977 
L 298.435236 95.526 
L 299.340293 95.737976 
L 300.491647 94.903937 
L 300.9686 95.11513 
L 301.657708 94.482359 
L 302.405346 93.629952 
L 302.738659 92.770699 
L 302.819879 91.904516 
L 302.850595 92.314537 
L 303.564048 92.522057 
L 304.983717 92.731279 
L 306.213145 91.847111 
L 306.312014 92.055273 
L 306.433599 91.160963 
L 306.442295 91.368 
L 306.706955 91.57677 
L 306.954387 90.669176 
L 307.774094 89.753924 
L 308.577346 90.164834 
L 310.444527 90.372923 
L 311.284927 90.582798 
L 311.864417 89.647448 
L 312.037861 90.066365 
L 312.093837 89.116507 
L 312.203871 89.325474 
L 312.57253 88.363982 
L 312.598857 88.571469 
L 312.627434 88.7808 
L 313.61508 88.992 
L 313.697313 89.205094 
L 314.277244 89.420108 
L 314.372517 88.432941 
L 315.149114 88.6464 
L 315.655856 89.079193 
L 315.975176 89.52 
L 316.549958 88.505749 
L 316.901285 89.171321 
L 317.143476 88.13619 
L 317.986678 88.809231 
L 318.313343 89.037913 
L 318.694426 89.737412 
L 320.936209 90.215287 
L 321.260381 90.457791 
L 322.335841 90.70272 
L 322.463669 90.950111 
L 322.721887 91.2 
L 322.951718 90.101604 
L 323.284148 90.349714 
L 323.3858 90.600369 
L 324.459166 90.853608 
L 324.540903 91.109472 
L 325.550928 91.368 
L 325.57584 91.629236 
L 326.293028 91.893221 
L 326.520935 92.16 
L 327.240314 92.429617 
L 327.458697 92.702118 
L 327.473959 92.977548 
L 328.187477 93.537391 
L 328.598139 91.185231 
L 329.605829 89.989657 
L 330.29754 88.7808 
L 330.340049 89.045095 
L 331.14709 89.582644 
L 331.586028 89.856 
L 332.062207 88.61184 
L 332.8831 88.882759 
L 333.116604 89.156809 
L 335.635846 89.714526 
L 336.933236 90.285444 
L 340.707308 90.870036 
L 343.352614 91.4688 
L 343.764544 91.773659 
L 345.311593 92.082258 
L 346.046464 92.394667 
L 348.052025 92.710957 
L 348.231871 91.368 
L 348.452913 91.681811 
L 353.714701 92.321427 
L 353.918204 92.647385 
L 355.307227 93.312 
L 355.737019 91.911529 
L 355.798797 90.492632 
L 355.916452 90.817272 
L 357.33237 91.14624 
L 357.535743 89.693638 
L 357.991606 90.019459 
L 360.744176 90.684493 
L 361.232237 91.02389 
L 361.482377 89.52 
L 361.808365 89.856 
L 361.816476 90.196732 
L 362.338348 90.542298 
L 362.391544 88.992 
L 363.325888 87.419396 
L 363.748105 87.752348 
L 363.881265 86.147737 
L 364.183066 86.476235 
L 364.729367 86.8096 
L 366.764931 85.16203 
L 366.835684 85.490526 
L 367.694532 83.808 
L 370.17331 84.131176 
L 370.684412 84.459323 
L 370.869967 82.729674 
L 371.18573 83.379402 
L 371.815095 81.6 
L 372.155442 79.792128 
L 375.097767 77.955097 
L 375.456635 78.251707 
L 375.98151 76.371934 
L 376.299261 76.660364 
L 376.398061 76.9536 
L 377.722964 77.554983 
L 380.009968 78.177103 
L 380.829792 79.151575 
L 381.154336 79.488 
L 381.658383 79.830486 
L 381.739487 80.896 
L 382.528357 82.412308 
L 384.115349 83.215059 
L 385.745931 83.628356 
L 386.274757 81.3888 
L 386.6684 81.792 
L 387.278025 82.203429 
L 388.125161 82.62334 
L 389.462737 83.052 
L 389.946199 83.489684 
L 389.948355 81.105702 
L 391.311836 81.531871 
L 391.623365 81.967304 
L 391.706745 82.8672 
L 392.11683 80.342292 
L 392.609255 80.784 
L 392.7044 81.235862 
L 393.302934 82.171482 
L 393.339222 83.152193 
L 393.678238 83.660488 
L 393.865854 85.262582 
L 394.16541 82.412308 
L 394.218636 82.944 
L 394.237984 79.988211 
L 394.725166 81.029189 
L 394.85044 81.571068 
L 395.255338 82.128 
L 395.47123 78.952563 
L 395.929241 81.190209 
L 395.986394 82.412308 
L 396.292361 83.052 
L 396.918847 85.824 
L 398.054106 101.952 
L 398.279509 93.396293 
L 398.33206 96.059077 
L 398.48726 135.393882 
L 398.487271 112.4352 
L 398.487273 41.472 
L 398.487273 41.472 
" style="fill:none;stroke:#0000ff;stroke-dasharray:5.55,2.4;stroke-dashoffset:0;stroke-width:1.5;"/>
   </g>
   <g id="line2d_14">
    <path clip-path="url(#p0e520d733a)" d="M 73.832727 41.472 
L 73.945445 43.806316 
L 77.369665 43.806316 
L 77.942657 44.584421 
L 78.286526 45.362526 
L 84.05487 45.362526 
L 84.160939 46.918737 
L 84.221294 46.918737 
L 84.293381 47.696842 
L 84.502699 47.696842 
L 84.734452 50.031158 
L 84.794121 50.031158 
L 84.910611 50.809263 
L 85.510507 50.809263 
L 85.607934 53.921684 
L 85.727195 53.921684 
L 85.794218 55.477895 
L 85.883528 55.477895 
L 86.022107 56.256 
L 86.217936 56.256 
L 86.323765 57.034105 
L 86.598909 57.034105 
L 86.767481 58.590316 
L 87.185542 58.590316 
L 87.283221 59.368421 
L 87.875737 59.368421 
L 87.963448 60.924632 
L 88.092546 60.924632 
L 88.191949 61.702737 
L 88.270242 61.702737 
L 88.377851 62.480842 
L 88.958192 62.480842 
L 89.1253 63.258947 
L 89.308693 63.258947 
L 89.435974 64.037053 
L 91.383527 64.037053 
L 91.459072 64.815158 
L 91.66703 64.815158 
L 92.130283 65.593263 
L 92.420717 66.371368 
L 93.61295 66.371368 
L 94.367442 67.927579 
L 94.583836 67.927579 
L 94.646939 68.705684 
L 95.906887 68.705684 
L 96.00935 71.818105 
L 96.637967 71.818105 
L 96.652392 72.596211 
L 97.095069 72.596211 
L 97.1022 73.374316 
L 97.299733 73.374316 
L 97.391511 74.152421 
L 97.760673 74.152421 
L 98.022901 75.708632 
L 99.053329 75.708632 
L 99.149235 76.486737 
L 99.255405 76.486737 
L 99.320482 77.264842 
L 100.14947 77.264842 
L 100.268564 78.042947 
L 103.934487 78.042947 
L 104.011028 78.821053 
L 104.417828 78.821053 
L 105.027945 79.599158 
L 109.218308 79.599158 
L 111.353247 80.377263 
L 119.26708 80.377263 
L 119.4346 81.155368 
L 122.127984 81.155368 
L 122.618616 81.933474 
L 122.812379 81.933474 
L 122.980461 82.711579 
L 123.813189 82.711579 
L 123.842671 83.489684 
L 124.011485 83.489684 
L 124.012602 84.267789 
L 126.745181 84.267789 
L 127.450996 85.824 
L 127.805272 85.824 
L 127.988325 86.602105 
L 129.530221 86.602105 
L 129.590966 87.380211 
L 129.780929 88.158316 
L 130.534587 88.158316 
L 132.15821 88.936421 
L 132.451664 89.714526 
L 135.02214 89.714526 
L 135.891008 90.492632 
L 136.817053 91.270737 
L 139.378377 91.270737 
L 140.047195 92.048842 
L 141.661906 92.048842 
L 142.215732 92.826947 
L 142.816599 92.826947 
L 144.843374 93.605053 
L 145.193246 93.605053 
L 145.530072 94.383158 
L 146.820887 95.161263 
L 146.860148 95.939368 
L 150.935219 95.939368 
L 151.552508 97.495579 
L 151.596841 97.495579 
L 151.771278 98.273684 
L 153.779132 99.051789 
L 154.745012 99.051789 
L 155.596968 100.608 
L 156.68819 101.386105 
L 160.626728 101.386105 
L 160.686037 102.164211 
L 161.453329 102.164211 
L 161.731442 103.720421 
L 164.970046 103.720421 
L 165.548118 104.498526 
L 165.569692 105.276632 
L 167.774316 105.276632 
L 167.996733 106.054737 
L 171.991256 106.054737 
L 172.06763 106.832842 
L 172.694533 106.832842 
L 173.11755 107.610947 
L 173.41318 107.610947 
L 173.413609 108.389053 
L 182.543481 108.389053 
L 184.818083 109.167158 
L 186.69871 109.167158 
L 187.551206 109.945263 
L 191.825141 109.945263 
L 193.682318 110.723368 
L 194.144364 111.501474 
L 214.674844 111.501474 
L 216.484617 112.279579 
L 220.769503 112.279579 
L 223.703328 113.057684 
L 225.62353 113.057684 
L 235.140924 113.835789 
L 237.083798 113.835789 
L 239.791574 114.613895 
L 248.272989 114.613895 
L 249.169103 115.392 
L 252.201598 116.170105 
L 253.691267 116.170105 
L 253.79078 116.948211 
L 254.775664 116.948211 
L 255.116248 117.726316 
L 256.016681 117.726316 
L 256.023583 118.504421 
L 256.159229 118.504421 
L 257.030957 119.282526 
L 257.174825 120.060632 
L 257.725945 120.838737 
L 259.027714 120.838737 
L 259.206761 121.616842 
L 260.225806 122.394947 
L 260.964518 123.173053 
L 261.733481 123.173053 
L 262.020972 123.951158 
L 262.167269 124.729263 
L 262.386953 125.507368 
L 267.506573 125.507368 
L 267.671658 126.285474 
L 271.367523 126.285474 
L 271.657432 127.063579 
L 271.77169 127.841684 
L 272.087827 127.841684 
L 272.181226 128.619789 
L 272.730786 129.397895 
L 273.351948 129.397895 
L 273.609958 130.176 
L 273.64159 130.954105 
L 276.762281 130.954105 
L 276.819554 131.732211 
L 277.047207 131.732211 
L 277.275482 132.510316 
L 277.709822 132.510316 
L 280.272161 133.288421 
L 280.645902 134.066526 
L 282.983679 134.066526 
L 283.749683 134.844632 
L 284.629418 134.844632 
L 284.629847 135.622737 
L 285.185006 136.400842 
L 285.43475 136.400842 
L 285.963159 137.178947 
L 286.645426 137.957053 
L 288.385951 138.735158 
L 288.440084 139.513263 
L 289.668108 141.069474 
L 291.527261 141.069474 
L 291.542201 141.847579 
L 293.195505 142.625684 
L 294.445612 142.625684 
L 295.214427 143.403789 
L 295.922733 143.403789 
L 295.962485 144.181895 
L 297.368121 146.516211 
L 298.368709 147.294316 
L 298.435236 148.850526 
L 299.340293 149.628632 
L 300.491647 149.628632 
L 300.9686 150.406737 
L 301.657708 151.184842 
L 302.819879 151.184842 
L 302.850595 152.741053 
L 303.564048 153.519158 
L 304.983717 154.297263 
L 306.213145 154.297263 
L 306.312014 155.075368 
L 306.433599 155.075368 
L 306.442295 155.853474 
L 306.706955 156.631579 
L 307.774094 156.631579 
L 308.577346 158.187789 
L 310.444527 158.965895 
L 311.284927 159.744 
L 311.864417 159.744 
L 312.008301 160.522105 
L 312.093837 161.300211 
L 312.203871 162.078316 
L 312.57253 162.078316 
L 312.627434 163.634526 
L 313.61508 164.412632 
L 313.697313 165.190737 
L 314.372517 165.968842 
L 315.149114 166.746947 
L 315.468107 167.525053 
L 315.975176 169.859368 
L 316.549958 169.859368 
L 316.785846 171.415579 
L 316.901285 172.193684 
L 317.143476 172.193684 
L 317.90754 173.749895 
L 317.986678 174.528 
L 318.313343 175.306105 
L 318.694426 177.640421 
L 320.936209 179.196632 
L 321.260381 179.974737 
L 322.335841 180.752842 
L 322.463669 181.530947 
L 322.721887 182.309053 
L 322.951718 182.309053 
L 323.284148 183.087158 
L 323.3858 183.865263 
L 324.459166 184.643368 
L 324.540903 185.421474 
L 325.550928 186.199579 
L 325.57584 186.977684 
L 326.293028 187.755789 
L 326.520935 188.533895 
L 327.240314 189.312 
L 327.458697 190.090105 
L 327.473959 190.868211 
L 327.929903 191.646316 
L 328.187477 192.424421 
L 330.29754 192.424421 
L 330.340049 193.202526 
L 330.66426 193.980632 
L 331.586028 195.536842 
L 332.062207 195.536842 
L 332.8831 196.314947 
L 333.116604 197.093053 
L 335.635846 198.649263 
L 336.186635 199.427368 
L 336.933236 200.205474 
L 340.707308 201.761684 
L 343.352614 203.317895 
L 343.764544 204.096 
L 345.311593 204.874105 
L 346.046464 205.652211 
L 348.231871 206.430316 
L 348.452913 207.208421 
L 351.380482 207.986526 
L 353.714701 208.764632 
L 353.918204 209.542737 
L 355.307227 211.098947 
L 355.798797 211.098947 
L 355.916452 211.877053 
L 357.535743 212.655158 
L 357.991606 213.433263 
L 360.744176 214.989474 
L 361.232237 215.767579 
L 361.482377 215.767579 
L 361.808365 216.545684 
L 361.816476 217.323789 
L 362.391544 218.101895 
L 363.325888 218.101895 
L 363.748105 218.88 
L 363.881265 218.88 
L 364.183066 219.658105 
L 364.729367 220.436211 
L 366.764931 220.436211 
L 366.835684 221.214316 
L 367.694532 221.214316 
L 370.17331 221.992421 
L 370.684412 222.770526 
L 370.869967 222.770526 
L 371.18573 224.326737 
L 375.097767 224.326737 
L 375.456635 225.104842 
L 375.98151 225.104842 
L 376.299261 225.882947 
L 376.398061 226.661053 
L 377.722964 228.217263 
L 380.009968 229.773474 
L 380.555364 231.329684 
L 381.154336 232.885895 
L 381.658383 233.664 
L 381.739487 235.998316 
L 382.528357 239.110737 
L 383.219228 239.888842 
L 384.115349 240.666947 
L 385.745931 241.445053 
L 386.274757 241.445053 
L 386.6684 242.223158 
L 387.278025 243.001263 
L 388.125161 243.779368 
L 389.462737 244.557474 
L 389.948355 245.335579 
L 391.311836 246.113684 
L 391.623365 246.891789 
L 391.706745 248.448 
L 392.11683 248.448 
L 392.609255 249.226105 
L 392.7044 250.004211 
L 393.302934 251.560421 
L 393.339222 253.116632 
L 393.678238 253.894737 
L 393.865854 256.229053 
L 394.16541 256.229053 
L 394.237984 257.007158 
L 394.725166 258.563368 
L 394.85044 259.341474 
L 395.255338 260.119579 
L 395.47123 260.119579 
L 395.929241 263.232 
L 395.986394 264.788211 
L 396.292361 265.566316 
L 396.971257 269.456842 
L 396.995679 270.234947 
L 397.22671 271.791158 
L 397.86717 279.572211 
L 398.054106 281.128421 
L 398.189634 281.128421 
L 398.33206 283.462737 
L 398.487273 305.249684 
L 398.487273 305.249684 
" style="fill:none;stroke:#008000;stroke-linecap:square;stroke-width:1.5;"/>
   </g>
   <g id="patch_3">
    <path d="M 57.6 307.584 
L 57.6 41.472 
" style="fill:none;stroke:#000000;stroke-linecap:square;stroke-linejoin:miter;stroke-width:0.8;"/>
   </g>
   <g id="patch_4">
    <path d="M 414.72 307.584 
L 414.72 41.472 
" style="fill:none;stroke:#000000;stroke-linecap:square;stroke-linejoin:miter;stroke-width:0.8;"/>
   </g>
   <g id="patch_5">
    <path d="M 57.6 307.584 
L 414.72 307.584 
" style="fill:none;stroke:#000000;stroke-linecap:square;stroke-linejoin:miter;stroke-width:0.8;"/>
   </g>
   <g id="patch_6">
    <path d="M 57.6 41.472 
L 414.72 41.472 
" style="fill:none;stroke:#000000;stroke-linecap:square;stroke-linejoin:miter;stroke-width:0.8;"/>
   </g>
   <g id="text_14">
    <!-- Precision vs. Recall -->
    <defs>
     <path d="M 19.671875 64.796875 
L 19.671875 37.40625 
L 32.078125 37.40625 
Q 38.96875 37.40625 42.71875 40.96875 
Q 46.484375 44.53125 46.484375 51.125 
Q 46.484375 57.671875 42.71875 61.234375 
Q 38.96875 64.796875 32.078125 64.796875 
z
M 9.8125 72.90625 
L 32.078125 72.90625 
Q 44.34375 72.90625 50.609375 67.359375 
Q 56.890625 61.8125 56.890625 51.125 
Q 56.890625 40.328125 50.609375 34.8125 
Q 44.34375 29.296875 32.078125 29.296875 
L 19.671875 29.296875 
L 19.671875 0 
L 9.8125 0 
z
" id="DejaVuSans-80"/>
     <path d="M 48.78125 52.59375 
L 48.78125 44.1875 
Q 44.96875 46.296875 41.140625 47.34375 
Q 37.3125 48.390625 33.40625 48.390625 
Q 24.65625 48.390625 19.8125 42.84375 
Q 14.984375 37.3125 14.984375 27.296875 
Q 14.984375 17.28125 19.8125 11.734375 
Q 24.65625 6.203125 33.40625 6.203125 
Q 37.3125 6.203125 41.140625 7.25 
Q 44.96875 8.296875 48.78125 10.40625 
L 48.78125 2.09375 
Q 45.015625 0.34375 40.984375 -0.53125 
Q 36.96875 -1.421875 32.421875 -1.421875 
Q 20.0625 -1.421875 12.78125 6.34375 
Q 5.515625 14.109375 5.515625 27.296875 
Q 5.515625 40.671875 12.859375 48.328125 
Q 20.21875 56 33.015625 56 
Q 37.15625 56 41.109375 55.140625 
Q 45.0625 54.296875 48.78125 52.59375 
z
" id="DejaVuSans-99"/>
     <path d="M 9.421875 54.6875 
L 18.40625 54.6875 
L 18.40625 0 
L 9.421875 0 
z
M 9.421875 75.984375 
L 18.40625 75.984375 
L 18.40625 64.59375 
L 9.421875 64.59375 
z
" id="DejaVuSans-105"/>
     <path d="M 54.890625 33.015625 
L 54.890625 0 
L 45.90625 0 
L 45.90625 32.71875 
Q 45.90625 40.484375 42.875 44.328125 
Q 39.84375 48.1875 33.796875 48.1875 
Q 26.515625 48.1875 22.3125 43.546875 
Q 18.109375 38.921875 18.109375 30.90625 
L 18.109375 0 
L 9.078125 0 
L 9.078125 54.6875 
L 18.109375 54.6875 
L 18.109375 46.1875 
Q 21.34375 51.125 25.703125 53.5625 
Q 30.078125 56 35.796875 56 
Q 45.21875 56 50.046875 50.171875 
Q 54.890625 44.34375 54.890625 33.015625 
z
" id="DejaVuSans-110"/>
     <path id="DejaVuSans-32"/>
     <path d="M 2.984375 54.6875 
L 12.5 54.6875 
L 29.59375 8.796875 
L 46.6875 54.6875 
L 56.203125 54.6875 
L 35.6875 0 
L 23.484375 0 
z
" id="DejaVuSans-118"/>
     <path d="M 44.390625 34.1875 
Q 47.5625 33.109375 50.5625 29.59375 
Q 53.5625 26.078125 56.59375 19.921875 
L 66.609375 0 
L 56 0 
L 46.6875 18.703125 
Q 43.0625 26.03125 39.671875 28.421875 
Q 36.28125 30.8125 30.421875 30.8125 
L 19.671875 30.8125 
L 19.671875 0 
L 9.8125 0 
L 9.8125 72.90625 
L 32.078125 72.90625 
Q 44.578125 72.90625 50.734375 67.671875 
Q 56.890625 62.453125 56.890625 51.90625 
Q 56.890625 45.015625 53.6875 40.46875 
Q 50.484375 35.9375 44.390625 34.1875 
z
M 19.671875 64.796875 
L 19.671875 38.921875 
L 32.078125 38.921875 
Q 39.203125 38.921875 42.84375 42.21875 
Q 46.484375 45.515625 46.484375 51.90625 
Q 46.484375 58.296875 42.84375 61.546875 
Q 39.203125 64.796875 32.078125 64.796875 
z
" id="DejaVuSans-82"/>
     <path d="M 34.28125 27.484375 
Q 23.390625 27.484375 19.1875 25 
Q 14.984375 22.515625 14.984375 16.5 
Q 14.984375 11.71875 18.140625 8.90625 
Q 21.296875 6.109375 26.703125 6.109375 
Q 34.1875 6.109375 38.703125 11.40625 
Q 43.21875 16.703125 43.21875 25.484375 
L 43.21875 27.484375 
z
M 52.203125 31.203125 
L 52.203125 0 
L 43.21875 0 
L 43.21875 8.296875 
Q 40.140625 3.328125 35.546875 0.953125 
Q 30.953125 -1.421875 24.3125 -1.421875 
Q 15.921875 -1.421875 10.953125 3.296875 
Q 6 8.015625 6 15.921875 
Q 6 25.140625 12.171875 29.828125 
Q 18.359375 34.515625 30.609375 34.515625 
L 43.21875 34.515625 
L 43.21875 35.40625 
Q 43.21875 41.609375 39.140625 45 
Q 35.0625 48.390625 27.6875 48.390625 
Q 23 48.390625 18.546875 47.265625 
Q 14.109375 46.140625 10.015625 43.890625 
L 10.015625 52.203125 
Q 14.9375 54.109375 19.578125 55.046875 
Q 24.21875 56 28.609375 56 
Q 40.484375 56 46.34375 49.84375 
Q 52.203125 43.703125 52.203125 31.203125 
z
" id="DejaVuSans-97"/>
    </defs>
    <g transform="translate(178.59 35.472)scale(0.12 -0.12)">
     <use xlink:href="#DejaVuSans-80"/>
     <use x="60.287109" xlink:href="#DejaVuSans-114"/>
     <use x="101.369141" xlink:href="#DejaVuSans-101"/>
     <use x="162.892578" xlink:href="#DejaVuSans-99"/>
     <use x="217.873047" xlink:href="#DejaVuSans-105"/>
     <use x="245.65625" xlink:href="#DejaVuSans-115"/>
     <use x="297.755859" xlink:href="#DejaVuSans-105"/>
     <use x="325.539062" xlink:href="#DejaVuSans-111"/>
     <use x="386.720703" xlink:href="#DejaVuSans-110"/>
     <use x="450.099609" xlink:href="#DejaVuSans-32"/>
     <use x="481.886719" xlink:href="#DejaVuSans-118"/>
     <use x="541.066406" xlink:href="#DejaVuSans-115"/>
     <use x="593.166016" xlink:href="#DejaVuSans-46"/>
     <use x="624.953125" xlink:href="#DejaVuSans-32"/>
     <use x="656.740234" xlink:href="#DejaVuSans-82"/>
     <use x="726.160156" xlink:href="#DejaVuSans-101"/>
     <use x="787.683594" xlink:href="#DejaVuSans-99"/>
     <use x="842.664062" xlink:href="#DejaVuSans-97"/>
     <use x="903.943359" xlink:href="#DejaVuSans-108"/>
     <use x="931.726562" xlink:href="#DejaVuSans-108"/>
    </g>
   </g>
   <g id="legend_1">
    <g id="patch_7">
     <path d="M 64.6 302.584 
L 141.609375 302.584 
Q 143.609375 302.584 143.609375 300.584 
L 143.609375 272.22775 
Q 143.609375 270.22775 141.609375 270.22775 
L 64.6 270.22775 
Q 62.6 270.22775 62.6 272.22775 
L 62.6 300.584 
Q 62.6 302.584 64.6 302.584 
z
" style="fill:#ffffff;opacity:0.8;stroke:#cccccc;stroke-linejoin:miter;"/>
    </g>
    <g id="line2d_15">
     <path d="M 66.6 278.326187 
L 86.6 278.326187 
" style="fill:none;stroke:#0000ff;stroke-dasharray:5.55,2.4;stroke-dashoffset:0;stroke-width:1.5;"/>
    </g>
    <g id="line2d_16"/>
    <g id="text_15">
     <!-- Precision -->
     <g transform="translate(94.6 281.826187)scale(0.1 -0.1)">
      <use xlink:href="#DejaVuSans-80"/>
      <use x="60.287109" xlink:href="#DejaVuSans-114"/>
      <use x="101.369141" xlink:href="#DejaVuSans-101"/>
      <use x="162.892578" xlink:href="#DejaVuSans-99"/>
      <use x="217.873047" xlink:href="#DejaVuSans-105"/>
      <use x="245.65625" xlink:href="#DejaVuSans-115"/>
      <use x="297.755859" xlink:href="#DejaVuSans-105"/>
      <use x="325.539062" xlink:href="#DejaVuSans-111"/>
      <use x="386.720703" xlink:href="#DejaVuSans-110"/>
     </g>
    </g>
    <g id="line2d_17">
     <path d="M 66.6 293.004312 
L 86.6 293.004312 
" style="fill:none;stroke:#008000;stroke-linecap:square;stroke-width:1.5;"/>
    </g>
    <g id="line2d_18"/>
    <g id="text_16">
     <!-- Recall -->
     <g transform="translate(94.6 296.504312)scale(0.1 -0.1)">
      <use xlink:href="#DejaVuSans-82"/>
      <use x="69.419922" xlink:href="#DejaVuSans-101"/>
      <use x="130.943359" xlink:href="#DejaVuSans-99"/>
      <use x="185.923828" xlink:href="#DejaVuSans-97"/>
      <use x="247.203125" xlink:href="#DejaVuSans-108"/>
      <use x="274.986328" xlink:href="#DejaVuSans-108"/>
     </g>
    </g>
   </g>
  </g>
 </g>
 <defs>
  <clipPath id="p0e520d733a">
   <rect height="266.112" width="357.12" x="57.6" y="41.472"/>
  </clipPath>
 </defs>
</svg>
