<?xml version="1.0" encoding="utf-8" standalone="no"?>
<!DOCTYPE svg PUBLIC "-//W3C//DTD SVG 1.1//EN"
  "http://www.w3.org/Graphics/SVG/1.1/DTD/svg11.dtd">
<!-- Created with matplotlib (https://matplotlib.org/) -->
<svg height="345.6pt" version="1.1" viewBox="0 0 460.8 345.6" width="460.8pt" xmlns="http://www.w3.org/2000/svg" xmlns:xlink="http://www.w3.org/1999/xlink">
 <defs>
  <style type="text/css">
*{stroke-linecap:butt;stroke-linejoin:round;}
  </style>
 </defs>
 <g id="figure_1">
  <g id="patch_1">
   <path d="M 0 345.6 
L 460.8 345.6 
L 460.8 0 
L 0 0 
z
" style="fill:#ffffff;"/>
  </g>
  <g id="axes_1">
   <g id="patch_2">
    <path d="M 57.6 307.584 
L 414.72 307.584 
L 414.72 41.472 
L 57.6 41.472 
z
" style="fill:#ffffff;"/>
   </g>
   <g id="matplotlib.axis_1">
    <g id="xtick_1">
     <g id="line2d_1">
      <defs>
       <path d="M 0 0 
L 0 3.5 
" id="m01f36642d8" style="stroke:#000000;stroke-width:0.8;"/>
      </defs>
      <g>
       <use style="stroke:#000000;stroke-width:0.8;" x="118.200669" xlink:href="#m01f36642d8" y="307.584"/>
      </g>
     </g>
     <g id="text_1">
      <!-- 0.2 -->
      <defs>
       <path d="M 31.78125 66.40625 
Q 24.171875 66.40625 20.328125 58.90625 
Q 16.5 51.421875 16.5 36.375 
Q 16.5 21.390625 20.328125 13.890625 
Q 24.171875 6.390625 31.78125 6.390625 
Q 39.453125 6.390625 43.28125 13.890625 
Q 47.125 21.390625 47.125 36.375 
Q 47.125 51.421875 43.28125 58.90625 
Q 39.453125 66.40625 31.78125 66.40625 
z
M 31.78125 74.21875 
Q 44.046875 74.21875 50.515625 64.515625 
Q 56.984375 54.828125 56.984375 36.375 
Q 56.984375 17.96875 50.515625 8.265625 
Q 44.046875 -1.421875 31.78125 -1.421875 
Q 19.53125 -1.421875 13.0625 8.265625 
Q 6.59375 17.96875 6.59375 36.375 
Q 6.59375 54.828125 13.0625 64.515625 
Q 19.53125 74.21875 31.78125 74.21875 
z
" id="DejaVuSans-48"/>
       <path d="M 10.6875 12.40625 
L 21 12.40625 
L 21 0 
L 10.6875 0 
z
" id="DejaVuSans-46"/>
       <path d="M 19.1875 8.296875 
L 53.609375 8.296875 
L 53.609375 0 
L 7.328125 0 
L 7.328125 8.296875 
Q 12.9375 14.109375 22.625 23.890625 
Q 32.328125 33.6875 34.8125 36.53125 
Q 39.546875 41.84375 41.421875 45.53125 
Q 43.3125 49.21875 43.3125 52.78125 
Q 43.3125 58.59375 39.234375 62.25 
Q 35.15625 65.921875 28.609375 65.921875 
Q 23.96875 65.921875 18.8125 64.3125 
Q 13.671875 62.703125 7.8125 59.421875 
L 7.8125 69.390625 
Q 13.765625 71.78125 18.9375 73 
Q 24.125 74.21875 28.421875 74.21875 
Q 39.75 74.21875 46.484375 68.546875 
Q 53.21875 62.890625 53.21875 53.421875 
Q 53.21875 48.921875 51.53125 44.890625 
Q 49.859375 40.875 45.40625 35.40625 
Q 44.1875 33.984375 37.640625 27.21875 
Q 31.109375 20.453125 19.1875 8.296875 
z
" id="DejaVuSans-50"/>
      </defs>
      <g transform="translate(110.249107 322.182437)scale(0.1 -0.1)">
       <use xlink:href="#DejaVuSans-48"/>
       <use x="63.623047" xlink:href="#DejaVuSans-46"/>
       <use x="95.410156" xlink:href="#DejaVuSans-50"/>
      </g>
     </g>
    </g>
    <g id="xtick_2">
     <g id="line2d_2">
      <g>
       <use style="stroke:#000000;stroke-width:0.8;" x="190.30228" xlink:href="#m01f36642d8" y="307.584"/>
      </g>
     </g>
     <g id="text_2">
      <!-- 0.4 -->
      <defs>
       <path d="M 37.796875 64.3125 
L 12.890625 25.390625 
L 37.796875 25.390625 
z
M 35.203125 72.90625 
L 47.609375 72.90625 
L 47.609375 25.390625 
L 58.015625 25.390625 
L 58.015625 17.1875 
L 47.609375 17.1875 
L 47.609375 0 
L 37.796875 0 
L 37.796875 17.1875 
L 4.890625 17.1875 
L 4.890625 26.703125 
z
" id="DejaVuSans-52"/>
      </defs>
      <g transform="translate(182.350718 322.182437)scale(0.1 -0.1)">
       <use xlink:href="#DejaVuSans-48"/>
       <use x="63.623047" xlink:href="#DejaVuSans-46"/>
       <use x="95.410156" xlink:href="#DejaVuSans-52"/>
      </g>
     </g>
    </g>
    <g id="xtick_3">
     <g id="line2d_3">
      <g>
       <use style="stroke:#000000;stroke-width:0.8;" x="262.403891" xlink:href="#m01f36642d8" y="307.584"/>
      </g>
     </g>
     <g id="text_3">
      <!-- 0.6 -->
      <defs>
       <path d="M 33.015625 40.375 
Q 26.375 40.375 22.484375 35.828125 
Q 18.609375 31.296875 18.609375 23.390625 
Q 18.609375 15.53125 22.484375 10.953125 
Q 26.375 6.390625 33.015625 6.390625 
Q 39.65625 6.390625 43.53125 10.953125 
Q 47.40625 15.53125 47.40625 23.390625 
Q 47.40625 31.296875 43.53125 35.828125 
Q 39.65625 40.375 33.015625 40.375 
z
M 52.59375 71.296875 
L 52.59375 62.3125 
Q 48.875 64.0625 45.09375 64.984375 
Q 41.3125 65.921875 37.59375 65.921875 
Q 27.828125 65.921875 22.671875 59.328125 
Q 17.53125 52.734375 16.796875 39.40625 
Q 19.671875 43.65625 24.015625 45.921875 
Q 28.375 48.1875 33.59375 48.1875 
Q 44.578125 48.1875 50.953125 41.515625 
Q 57.328125 34.859375 57.328125 23.390625 
Q 57.328125 12.15625 50.6875 5.359375 
Q 44.046875 -1.421875 33.015625 -1.421875 
Q 20.359375 -1.421875 13.671875 8.265625 
Q 6.984375 17.96875 6.984375 36.375 
Q 6.984375 53.65625 15.1875 63.9375 
Q 23.390625 74.21875 37.203125 74.21875 
Q 40.921875 74.21875 44.703125 73.484375 
Q 48.484375 72.75 52.59375 71.296875 
z
" id="DejaVuSans-54"/>
      </defs>
      <g transform="translate(254.452329 322.182437)scale(0.1 -0.1)">
       <use xlink:href="#DejaVuSans-48"/>
       <use x="63.623047" xlink:href="#DejaVuSans-46"/>
       <use x="95.410156" xlink:href="#DejaVuSans-54"/>
      </g>
     </g>
    </g>
    <g id="xtick_4">
     <g id="line2d_4">
      <g>
       <use style="stroke:#000000;stroke-width:0.8;" x="334.505502" xlink:href="#m01f36642d8" y="307.584"/>
      </g>
     </g>
     <g id="text_4">
      <!-- 0.8 -->
      <defs>
       <path d="M 31.78125 34.625 
Q 24.75 34.625 20.71875 30.859375 
Q 16.703125 27.09375 16.703125 20.515625 
Q 16.703125 13.921875 20.71875 10.15625 
Q 24.75 6.390625 31.78125 6.390625 
Q 38.8125 6.390625 42.859375 10.171875 
Q 46.921875 13.96875 46.921875 20.515625 
Q 46.921875 27.09375 42.890625 30.859375 
Q 38.875 34.625 31.78125 34.625 
z
M 21.921875 38.8125 
Q 15.578125 40.375 12.03125 44.71875 
Q 8.5 49.078125 8.5 55.328125 
Q 8.5 64.0625 14.71875 69.140625 
Q 20.953125 74.21875 31.78125 74.21875 
Q 42.671875 74.21875 48.875 69.140625 
Q 55.078125 64.0625 55.078125 55.328125 
Q 55.078125 49.078125 51.53125 44.71875 
Q 48 40.375 41.703125 38.8125 
Q 48.828125 37.15625 52.796875 32.3125 
Q 56.78125 27.484375 56.78125 20.515625 
Q 56.78125 9.90625 50.3125 4.234375 
Q 43.84375 -1.421875 31.78125 -1.421875 
Q 19.734375 -1.421875 13.25 4.234375 
Q 6.78125 9.90625 6.78125 20.515625 
Q 6.78125 27.484375 10.78125 32.3125 
Q 14.796875 37.15625 21.921875 38.8125 
z
M 18.3125 54.390625 
Q 18.3125 48.734375 21.84375 45.5625 
Q 25.390625 42.390625 31.78125 42.390625 
Q 38.140625 42.390625 41.71875 45.5625 
Q 45.3125 48.734375 45.3125 54.390625 
Q 45.3125 60.0625 41.71875 63.234375 
Q 38.140625 66.40625 31.78125 66.40625 
Q 25.390625 66.40625 21.84375 63.234375 
Q 18.3125 60.0625 18.3125 54.390625 
z
" id="DejaVuSans-56"/>
      </defs>
      <g transform="translate(326.55394 322.182437)scale(0.1 -0.1)">
       <use xlink:href="#DejaVuSans-48"/>
       <use x="63.623047" xlink:href="#DejaVuSans-46"/>
       <use x="95.410156" xlink:href="#DejaVuSans-56"/>
      </g>
     </g>
    </g>
    <g id="xtick_5">
     <g id="line2d_5">
      <g>
       <use style="stroke:#000000;stroke-width:0.8;" x="406.607113" xlink:href="#m01f36642d8" y="307.584"/>
      </g>
     </g>
     <g id="text_5">
      <!-- 1.0 -->
      <defs>
       <path d="M 12.40625 8.296875 
L 28.515625 8.296875 
L 28.515625 63.921875 
L 10.984375 60.40625 
L 10.984375 69.390625 
L 28.421875 72.90625 
L 38.28125 72.90625 
L 38.28125 8.296875 
L 54.390625 8.296875 
L 54.390625 0 
L 12.40625 0 
z
" id="DejaVuSans-49"/>
      </defs>
      <g transform="translate(398.655551 322.182437)scale(0.1 -0.1)">
       <use xlink:href="#DejaVuSans-49"/>
       <use x="63.623047" xlink:href="#DejaVuSans-46"/>
       <use x="95.410156" xlink:href="#DejaVuSans-48"/>
      </g>
     </g>
    </g>
    <g id="text_6">
     <!-- Threshold -->
     <defs>
      <path d="M -0.296875 72.90625 
L 61.375 72.90625 
L 61.375 64.59375 
L 35.5 64.59375 
L 35.5 0 
L 25.59375 0 
L 25.59375 64.59375 
L -0.296875 64.59375 
z
" id="DejaVuSans-84"/>
      <path d="M 54.890625 33.015625 
L 54.890625 0 
L 45.90625 0 
L 45.90625 32.71875 
Q 45.90625 40.484375 42.875 44.328125 
Q 39.84375 48.1875 33.796875 48.1875 
Q 26.515625 48.1875 22.3125 43.546875 
Q 18.109375 38.921875 18.109375 30.90625 
L 18.109375 0 
L 9.078125 0 
L 9.078125 75.984375 
L 18.109375 75.984375 
L 18.109375 46.1875 
Q 21.34375 51.125 25.703125 53.5625 
Q 30.078125 56 35.796875 56 
Q 45.21875 56 50.046875 50.171875 
Q 54.890625 44.34375 54.890625 33.015625 
z
" id="DejaVuSans-104"/>
      <path d="M 41.109375 46.296875 
Q 39.59375 47.171875 37.8125 47.578125 
Q 36.03125 48 33.890625 48 
Q 26.265625 48 22.1875 43.046875 
Q 18.109375 38.09375 18.109375 28.8125 
L 18.109375 0 
L 9.078125 0 
L 9.078125 54.6875 
L 18.109375 54.6875 
L 18.109375 46.1875 
Q 20.953125 51.171875 25.484375 53.578125 
Q 30.03125 56 36.53125 56 
Q 37.453125 56 38.578125 55.875 
Q 39.703125 55.765625 41.0625 55.515625 
z
" id="DejaVuSans-114"/>
      <path d="M 56.203125 29.59375 
L 56.203125 25.203125 
L 14.890625 25.203125 
Q 15.484375 15.921875 20.484375 11.0625 
Q 25.484375 6.203125 34.421875 6.203125 
Q 39.59375 6.203125 44.453125 7.46875 
Q 49.3125 8.734375 54.109375 11.28125 
L 54.109375 2.78125 
Q 49.265625 0.734375 44.1875 -0.34375 
Q 39.109375 -1.421875 33.890625 -1.421875 
Q 20.796875 -1.421875 13.15625 6.1875 
Q 5.515625 13.8125 5.515625 26.8125 
Q 5.515625 40.234375 12.765625 48.109375 
Q 20.015625 56 32.328125 56 
Q 43.359375 56 49.78125 48.890625 
Q 56.203125 41.796875 56.203125 29.59375 
z
M 47.21875 32.234375 
Q 47.125 39.59375 43.09375 43.984375 
Q 39.0625 48.390625 32.421875 48.390625 
Q 24.90625 48.390625 20.390625 44.140625 
Q 15.875 39.890625 15.1875 32.171875 
z
" id="DejaVuSans-101"/>
      <path d="M 44.28125 53.078125 
L 44.28125 44.578125 
Q 40.484375 46.53125 36.375 47.5 
Q 32.28125 48.484375 27.875 48.484375 
Q 21.1875 48.484375 17.84375 46.4375 
Q 14.5 44.390625 14.5 40.28125 
Q 14.5 37.15625 16.890625 35.375 
Q 19.28125 33.59375 26.515625 31.984375 
L 29.59375 31.296875 
Q 39.15625 29.25 43.1875 25.515625 
Q 47.21875 21.78125 47.21875 15.09375 
Q 47.21875 7.46875 41.1875 3.015625 
Q 35.15625 -1.421875 24.609375 -1.421875 
Q 20.21875 -1.421875 15.453125 -0.5625 
Q 10.6875 0.296875 5.421875 2 
L 5.421875 11.28125 
Q 10.40625 8.6875 15.234375 7.390625 
Q 20.0625 6.109375 24.8125 6.109375 
Q 31.15625 6.109375 34.5625 8.28125 
Q 37.984375 10.453125 37.984375 14.40625 
Q 37.984375 18.0625 35.515625 20.015625 
Q 33.0625 21.96875 24.703125 23.78125 
L 21.578125 24.515625 
Q 13.234375 26.265625 9.515625 29.90625 
Q 5.8125 33.546875 5.8125 39.890625 
Q 5.8125 47.609375 11.28125 51.796875 
Q 16.75 56 26.8125 56 
Q 31.78125 56 36.171875 55.265625 
Q 40.578125 54.546875 44.28125 53.078125 
z
" id="DejaVuSans-115"/>
      <path d="M 30.609375 48.390625 
Q 23.390625 48.390625 19.1875 42.75 
Q 14.984375 37.109375 14.984375 27.296875 
Q 14.984375 17.484375 19.15625 11.84375 
Q 23.34375 6.203125 30.609375 6.203125 
Q 37.796875 6.203125 41.984375 11.859375 
Q 46.1875 17.53125 46.1875 27.296875 
Q 46.1875 37.015625 41.984375 42.703125 
Q 37.796875 48.390625 30.609375 48.390625 
z
M 30.609375 56 
Q 42.328125 56 49.015625 48.375 
Q 55.71875 40.765625 55.71875 27.296875 
Q 55.71875 13.875 49.015625 6.21875 
Q 42.328125 -1.421875 30.609375 -1.421875 
Q 18.84375 -1.421875 12.171875 6.21875 
Q 5.515625 13.875 5.515625 27.296875 
Q 5.515625 40.765625 12.171875 48.375 
Q 18.84375 56 30.609375 56 
z
" id="DejaVuSans-111"/>
      <path d="M 9.421875 75.984375 
L 18.40625 75.984375 
L 18.40625 0 
L 9.421875 0 
z
" id="DejaVuSans-108"/>
      <path d="M 45.40625 46.390625 
L 45.40625 75.984375 
L 54.390625 75.984375 
L 54.390625 0 
L 45.40625 0 
L 45.40625 8.203125 
Q 42.578125 3.328125 38.25 0.953125 
Q 33.9375 -1.421875 27.875 -1.421875 
Q 17.96875 -1.421875 11.734375 6.484375 
Q 5.515625 14.40625 5.515625 27.296875 
Q 5.515625 40.1875 11.734375 48.09375 
Q 17.96875 56 27.875 56 
Q 33.9375 56 38.25 53.625 
Q 42.578125 51.265625 45.40625 46.390625 
z
M 14.796875 27.296875 
Q 14.796875 17.390625 18.875 11.75 
Q 22.953125 6.109375 30.078125 6.109375 
Q 37.203125 6.109375 41.296875 11.75 
Q 45.40625 17.390625 45.40625 27.296875 
Q 45.40625 37.203125 41.296875 42.84375 
Q 37.203125 48.484375 30.078125 48.484375 
Q 22.953125 48.484375 18.875 42.84375 
Q 14.796875 37.203125 14.796875 27.296875 
z
" id="DejaVuSans-100"/>
     </defs>
     <g transform="translate(211.410781 335.860562)scale(0.1 -0.1)">
      <use xlink:href="#DejaVuSans-84"/>
      <use x="61.083984" xlink:href="#DejaVuSans-104"/>
      <use x="124.462891" xlink:href="#DejaVuSans-114"/>
      <use x="165.544922" xlink:href="#DejaVuSans-101"/>
      <use x="227.068359" xlink:href="#DejaVuSans-115"/>
      <use x="279.167969" xlink:href="#DejaVuSans-104"/>
      <use x="342.546875" xlink:href="#DejaVuSans-111"/>
      <use x="403.728516" xlink:href="#DejaVuSans-108"/>
      <use x="431.511719" xlink:href="#DejaVuSans-100"/>
     </g>
    </g>
   </g>
   <g id="matplotlib.axis_2">
    <g id="ytick_1">
     <g id="line2d_6">
      <defs>
       <path d="M 0 0 
L -3.5 0 
" id="m1fdab76d9c" style="stroke:#000000;stroke-width:0.8;"/>
      </defs>
      <g>
       <use style="stroke:#000000;stroke-width:0.8;" x="57.6" xlink:href="#m1fdab76d9c" y="307.584"/>
      </g>
     </g>
     <g id="text_7">
      <!-- 0.0 -->
      <g transform="translate(34.696875 311.383219)scale(0.1 -0.1)">
       <use xlink:href="#DejaVuSans-48"/>
       <use x="63.623047" xlink:href="#DejaVuSans-46"/>
       <use x="95.410156" xlink:href="#DejaVuSans-48"/>
      </g>
     </g>
    </g>
    <g id="ytick_2">
     <g id="line2d_7">
      <g>
       <use style="stroke:#000000;stroke-width:0.8;" x="57.6" xlink:href="#m1fdab76d9c" y="254.3616"/>
      </g>
     </g>
     <g id="text_8">
      <!-- 0.2 -->
      <g transform="translate(34.696875 258.160819)scale(0.1 -0.1)">
       <use xlink:href="#DejaVuSans-48"/>
       <use x="63.623047" xlink:href="#DejaVuSans-46"/>
       <use x="95.410156" xlink:href="#DejaVuSans-50"/>
      </g>
     </g>
    </g>
    <g id="ytick_3">
     <g id="line2d_8">
      <g>
       <use style="stroke:#000000;stroke-width:0.8;" x="57.6" xlink:href="#m1fdab76d9c" y="201.1392"/>
      </g>
     </g>
     <g id="text_9">
      <!-- 0.4 -->
      <g transform="translate(34.696875 204.938419)scale(0.1 -0.1)">
       <use xlink:href="#DejaVuSans-48"/>
       <use x="63.623047" xlink:href="#DejaVuSans-46"/>
       <use x="95.410156" xlink:href="#DejaVuSans-52"/>
      </g>
     </g>
    </g>
    <g id="ytick_4">
     <g id="line2d_9">
      <g>
       <use style="stroke:#000000;stroke-width:0.8;" x="57.6" xlink:href="#m1fdab76d9c" y="147.9168"/>
      </g>
     </g>
     <g id="text_10">
      <!-- 0.6 -->
      <g transform="translate(34.696875 151.716019)scale(0.1 -0.1)">
       <use xlink:href="#DejaVuSans-48"/>
       <use x="63.623047" xlink:href="#DejaVuSans-46"/>
       <use x="95.410156" xlink:href="#DejaVuSans-54"/>
      </g>
     </g>
    </g>
    <g id="ytick_5">
     <g id="line2d_10">
      <g>
       <use style="stroke:#000000;stroke-width:0.8;" x="57.6" xlink:href="#m1fdab76d9c" y="94.6944"/>
      </g>
     </g>
     <g id="text_11">
      <!-- 0.8 -->
      <g transform="translate(34.696875 98.493619)scale(0.1 -0.1)">
       <use xlink:href="#DejaVuSans-48"/>
       <use x="63.623047" xlink:href="#DejaVuSans-46"/>
       <use x="95.410156" xlink:href="#DejaVuSans-56"/>
      </g>
     </g>
    </g>
    <g id="ytick_6">
     <g id="line2d_11">
      <g>
       <use style="stroke:#000000;stroke-width:0.8;" x="57.6" xlink:href="#m1fdab76d9c" y="41.472"/>
      </g>
     </g>
     <g id="text_12">
      <!-- 1.0 -->
      <g transform="translate(34.696875 45.271219)scale(0.1 -0.1)">
       <use xlink:href="#DejaVuSans-49"/>
       <use x="63.623047" xlink:href="#DejaVuSans-46"/>
       <use x="95.410156" xlink:href="#DejaVuSans-48"/>
      </g>
     </g>
    </g>
   </g>
   <g id="line2d_12">
    <path clip-path="url(#p70c8caf222)" d="M 73.832727 202.125942 
L 74.303 202.312316 
L 74.801332 202.190049 
L 74.833095 202.067498 
L 76.016408 201.450442 
L 76.050123 201.326164 
L 76.266806 201.201594 
L 76.288922 201.38907 
L 76.540935 201.264282 
L 76.542042 201.1392 
L 76.575249 201.327265 
L 76.623004 201.201962 
L 77.039965 200.950468 
L 77.770601 200.824275 
L 77.815397 200.697782 
L 78.11521 200.443895 
L 78.227976 200.316499 
L 78.838473 200.060796 
L 79.697955 199.674947 
L 79.958918 199.416173 
L 80.048992 199.156154 
L 80.698269 198.500605 
L 81.232158 198.88128 
L 81.385176 198.617118 
L 81.397684 198.484555 
L 81.883366 198.084923 
L 81.934499 197.816871 
L 82.920762 197.739243 
L 83.163504 197.931454 
L 83.360945 197.661041 
L 84.323096 197.38929 
L 84.994832 196.841739 
L 85.185208 196.427491 
L 85.401508 196.010133 
L 86.278333 195.589628 
L 86.613068 195.307526 
L 86.783363 195.024 
L 87.091588 194.739038 
L 87.18594 194.596015 
L 87.852997 194.164763 
L 87.992069 194.359276 
L 88.141348 194.070069 
L 88.376815 193.92491 
L 88.382556 193.77938 
L 88.394024 193.974646 
L 88.650583 194.170413 
L 88.67252 194.024638 
L 88.803949 194.220973 
L 88.948111 194.074887 
L 89.495986 193.928423 
L 89.546327 193.781581 
L 89.981178 193.486756 
L 90.001071 193.1904 
L 90.162282 193.387693 
L 90.169786 193.239 
L 90.289759 193.089919 
L 90.434499 193.287854 
L 90.452534 193.138447 
L 90.779005 192.988649 
L 90.864443 192.536894 
L 91.117988 192.081562 
L 91.119468 191.928983 
L 91.28111 192.128 
L 91.63989 191.821751 
L 91.660779 192.021418 
L 91.793548 191.404262 
L 91.964307 191.093205 
L 92.101981 190.308226 
L 92.359462 189.672585 
L 92.693061 189.512597 
L 92.806178 190.117668 
L 92.963343 189.957413 
L 92.97564 189.63559 
L 93.049307 189.677037 
L 93.435099 188.698556 
L 93.53839 188.2032 
L 93.662911 188.037163 
L 93.692684 187.703699 
L 94.086296 187.066329 
L 94.102655 186.726364 
L 94.195765 186.760871 
L 94.471716 185.9328 
L 94.635022 185.758764 
L 94.808625 185.965479 
L 94.811931 185.79099 
L 95.145664 185.616 
L 95.152986 185.440506 
L 95.319197 185.264507 
L 95.348415 185.472 
L 95.404885 185.295538 
L 95.47351 184.763077 
L 95.75896 184.584558 
L 95.906723 184.045874 
L 95.922717 183.684123 
L 96.341997 184.10178 
L 96.386034 183.920188 
L 96.659464 183.555398 
L 96.666738 183.975763 
L 97.016343 183.79264 
L 97.155489 183.24 
L 97.297541 182.868824 
L 97.466397 182.307886 
L 97.731565 182.119784 
L 97.737467 181.931116 
L 98.228438 181.74188 
L 98.293021 181.552072 
L 98.834817 181.170735 
L 98.915796 180.9792 
L 99.260174 180.594383 
L 99.451498 180.20722 
L 99.712072 179.228903 
L 100.059111 179.031434 
L 100.114537 178.634667 
L 100.347321 178.435363 
L 100.852852 178.235443 
L 101.108474 177.63195 
L 101.212442 177.226484 
L 101.548331 177.0228 
L 101.600844 176.613517 
L 101.747345 176.407912 
L 101.777769 176.620075 
L 102.061969 176.20694 
L 102.099152 175.79119 
L 102.477755 175.582326 
L 102.811855 174.528 
L 103.0396 174.101538 
L 103.200274 173.456696 
L 103.237087 173.669574 
L 103.885483 171.687724 
L 104.09091 171.464211 
L 104.618088 171.23996 
L 104.797692 170.549581 
L 105.056286 170.321571 
L 105.213109 169.632963 
L 105.358627 169.847638 
L 105.573036 169.616537 
L 105.623762 169.152 
L 106.042235 168.684324 
L 106.198332 167.739429 
L 106.237585 167.954535 
L 106.250868 167.477169 
L 106.376036 166.996528 
L 106.446468 166.754969 
L 106.608691 166.970602 
L 106.819026 165.503332 
L 106.828396 165.719415 
L 107.143079 165.471832 
L 107.148068 165.223385 
L 107.368587 164.974067 
L 107.439147 164.723874 
L 107.507466 164.940485 
L 107.942201 164.437333 
L 108.01812 164.147745 
L 108.50105 162.605419 
L 108.632898 162.822894 
L 108.930942 162.562532 
L 109.060288 161.246548 
L 109.14951 160.713443 
L 110.076584 159.635494 
L 110.123345 159.363529 
L 110.488481 159.580641 
L 110.990675 158.205145 
L 111.112979 158.422525 
L 111.493288 157.864912 
L 111.668908 158.082876 
L 111.672466 157.802386 
L 112.725417 157.520842 
L 112.829077 156.954566 
L 113.194098 156.669822 
L 113.300097 155.809095 
L 113.564796 156.02688 
L 114.039435 155.737649 
L 114.533594 155.95613 
L 115.657624 156.175448 
L 115.849718 155.884837 
L 116.302361 155.593108 
L 116.448487 155.300254 
L 116.589975 155.52 
L 117.519515 155.225872 
L 117.564042 154.930605 
L 118.129953 154.336623 
L 118.232739 154.037895 
L 118.260675 154.25775 
L 118.622335 153.957699 
L 119.419004 153.656471 
L 119.679447 153.354059 
L 120.699498 153.050457 
L 121.118978 152.745657 
L 121.308937 152.965565 
L 123.023473 152.65939 
L 123.993711 152.88 
L 124.318092 153.101487 
L 124.714494 152.793753 
L 124.979001 152.174592 
L 126.445891 152.396441 
L 126.581888 152.619181 
L 128.142993 151.994323 
L 128.709156 150.729366 
L 129.688511 150.409906 
L 129.966058 149.767067 
L 130.342557 149.988984 
L 130.78965 149.66538 
L 132.826354 149.340444 
L 133.101927 148.357565 
L 133.436965 148.02722 
L 133.642904 147.027908 
L 133.836244 146.692017 
L 134.853079 146.016 
L 135.210316 145.334278 
L 135.98149 144.991256 
L 136.26353 144.64678 
L 136.999608 144.300841 
L 137.422015 143.95343 
L 137.448909 143.604537 
L 138.259596 143.254154 
L 138.624301 142.90227 
L 138.735093 142.193961 
L 139.408865 142.411034 
L 139.604002 142.054289 
L 139.644863 142.272 
L 139.650869 141.913406 
L 139.990491 141.553252 
L 142.16662 141.191529 
L 142.358312 140.828227 
L 142.737701 140.463335 
L 142.952533 140.096842 
L 144.520745 139.728738 
L 145.292736 138.987656 
L 145.299195 138.614655 
L 145.604946 138.830049 
L 146.542934 137.7 
L 146.990538 137.319946 
L 147.299147 137.534852 
L 147.553546 137.152719 
L 147.587629 136.768865 
L 148.390893 136.983982 
L 149.055393 136.598009 
L 149.380803 136.210286 
L 150.375983 135.8208 
L 151.387404 135.036493 
L 151.565422 135.2506 
L 152.319247 134.855339 
L 153.176065 135.070014 
L 153.237497 135.285677 
L 153.26584 134.88776 
L 153.904204 134.488 
L 155.941491 134.086385 
L 156.353239 133.682902 
L 156.543189 133.897846 
L 156.976648 133.084328 
L 157.538674 132.889299 
L 157.623141 132.477283 
L 158.330848 132.692426 
L 159.904488 132.277991 
L 160.008168 131.237053 
L 160.189963 130.814158 
L 160.427484 131.028923 
L 160.695736 130.603489 
L 161.047624 130.818783 
L 161.847763 129.960699 
L 162.826199 130.176 
L 163.103607 130.392351 
L 164.311094 129.08627 
L 166.523683 129.518933 
L 166.90511 129.078178 
L 167.011003 129.295563 
L 168.656716 129.51403 
L 168.992307 129.069965 
L 169.815997 128.62368 
L 170.343095 128.842105 
L 170.563117 128.393005 
L 171.312036 127.941642 
L 171.523299 127.488 
L 172.67276 127.032061 
L 174.399185 127.249218 
L 174.578695 126.329143 
L 174.688488 125.865575 
L 174.987546 126.081969 
L 175.085192 125.615383 
L 175.494504 125.832247 
L 175.671197 125.362605 
L 175.945128 125.579938 
L 175.97134 125.7984 
L 176.102105 125.325 
L 176.485765 124.849128 
L 176.491802 124.370764 
L 176.540928 124.588346 
L 178.237046 124.106779 
L 178.563071 123.62267 
L 179.396902 123.84 
L 180.399651 123.352615 
L 180.403215 123.570383 
L 180.427926 123.07968 
L 180.787775 122.586353 
L 181.671703 122.090381 
L 183.514262 122.307097 
L 183.588549 122.524981 
L 184.268904 122.024822 
L 184.360711 121.521951 
L 184.568457 121.739478 
L 184.724531 121.23309 
L 185.186498 120.723934 
L 185.305886 120.941063 
L 187.843319 120.428308 
L 187.971355 120.645818 
L 189.022714 120.129414 
L 189.933003 120.347302 
L 192.002936 120.5664 
L 192.962217 120.04546 
L 196.366709 119.521609 
L 199.205459 119.740235 
L 199.887033 119.212584 
L 201.623642 118.681961 
L 201.723925 118.148339 
L 203.247173 117.611694 
L 203.940034 117.072 
L 205.332998 116.529231 
L 205.737924 116.959358 
L 206.28594 116.411586 
L 206.404636 116.844763 
L 208.221234 117.063235 
L 208.808606 116.509395 
L 209.10873 115.952327 
L 210.107827 115.392 
L 211.37307 114.828387 
L 211.68972 115.044141 
L 211.797318 115.261168 
L 212.023215 114.692166 
L 212.085372 114.119786 
L 212.628708 113.544 
L 212.990838 112.964776 
L 213.850721 113.178826 
L 215.296648 112.595027 
L 216.596598 113.024773 
L 217.130295 111.842043 
L 217.224053 112.056585 
L 217.225725 112.27244 
L 218.342753 111.673325 
L 218.977365 111.070523 
L 219.963932 110.464 
L 220.334374 109.853721 
L 221.053104 110.066087 
L 221.61194 109.450766 
L 221.844254 109.6632 
L 222.17434 109.042759 
L 222.991385 108.418415 
L 223.118863 108.629603 
L 223.766972 108 
L 224.808144 106.087054 
L 225.648573 106.502585 
L 227.445931 105.853935 
L 227.495577 104.544 
L 228.437707 103.882632 
L 229.130771 103.216941 
L 231.243901 102.546885 
L 232.717235 102.95002 
L 234.869746 102.272424 
L 235.070028 102.474419 
L 237.051313 102.67776 
L 238.148943 101.992455 
L 238.536674 102.195544 
L 239.531382 102.4 
L 240.157681 101.706811 
L 240.168836 101.910997 
L 240.595773 101.211429 
L 240.869883 100.507085 
L 241.339465 99.797918 
L 241.646697 99.083876 
L 241.946665 99.282538 
L 245.427289 97.836 
L 246.244582 97.105171 
L 246.500045 95.818817 
L 246.680754 95.07053 
L 247.264871 94.316936 
L 247.330776 93.557979 
L 247.8068 93.744 
L 247.981946 92.977548 
L 248.971801 93.16282 
L 249.069814 92.388736 
L 250.683963 92.573217 
L 251.340649 91.79136 
L 251.583939 91.975007 
L 252.026907 91.185231 
L 252.124364 90.389647 
L 252.341688 90.570155 
L 252.522665 89.7664 
L 252.859051 89.945933 
L 253.652133 89.133851 
L 253.893172 88.315685 
L 254.635335 88.669223 
L 255.36186 87.84 
L 255.722826 87.004471 
L 255.818546 87.17826 
L 255.829359 86.333793 
L 256.179683 86.506338 
L 256.213977 86.680216 
L 256.32122 85.824 
L 256.550537 84.961121 
L 257.767898 85.131 
L 258.980548 84.258635 
L 260.670997 84.427087 
L 260.818222 83.545043 
L 260.838191 83.712 
L 262.929893 83.880287 
L 262.95223 82.985472 
L 264.238415 83.320258 
L 264.331584 82.412308 
L 265.345615 81.496976 
L 266.71773 81.660343 
L 268.272509 82.158545 
L 268.345605 81.22317 
L 268.695453 80.28 
L 269.126765 80.442377 
L 271.213365 80.771241 
L 271.248826 79.810169 
L 272.224429 79.973311 
L 272.491648 80.303794 
L 272.817991 79.324138 
L 272.981009 79.820017 
L 273.745258 78.821053 
L 274.035715 78.985586 
L 274.049373 79.151575 
L 274.26101 79.31904 
L 274.345413 78.3 
L 275.308739 77.271821 
L 275.623244 77.433081 
L 276.595183 76.5504 
L 277.177394 76.87222 
L 277.579384 77.035355 
L 278.306603 77.2 
L 278.642867 76.128447 
L 279.749318 75.046879 
L 279.858885 75.524246 
L 279.88857 74.4192 
L 280.608182 74.896696 
L 280.834439 73.767146 
L 283.184978 73.924683 
L 283.366528 72.779294 
L 284.312605 73.089267 
L 285.637525 73.246567 
L 286.119961 73.728 
L 286.453571 73.891736 
L 286.527064 74.057143 
L 286.573313 72.859569 
L 287.215662 71.649649 
L 287.233343 71.80601 
L 287.290175 71.964 
L 287.718248 70.730387 
L 287.85351 70.884379 
L 287.859497 69.632 
L 287.966325 69.781787 
L 288.45112 68.510118 
L 288.975225 68.655484 
L 289.240864 68.950957 
L 289.553032 69.101115 
L 290.238898 69.252923 
L 293.646882 69.5616 
L 294.731038 69.877213 
L 296.592311 70.36416 
L 299.409471 70.530207 
L 299.51745 69.159954 
L 300.021036 69.32093 
L 300.502893 67.927579 
L 300.763304 68.0832 
L 300.844641 66.666036 
L 301.702817 66.816 
L 301.84489 67.121349 
L 303.545054 67.2768 
L 303.751861 65.811512 
L 304.585447 62.826667 
L 304.921424 63.0936 
L 304.97702 63.229585 
L 306.248526 63.506752 
L 306.417383 61.942154 
L 306.602057 62.208 
L 306.764146 60.604235 
L 306.7823 60.730105 
L 308.921985 60.98688 
L 309.591225 61.117852 
L 309.627217 59.452541 
L 309.789568 57.764571 
L 310.038967 57.989297 
L 311.110535 58.220308 
L 311.17958 56.464225 
L 313.001586 56.898783 
L 314.100788 55.068964 
L 314.731073 53.212235 
L 316.201043 51.328 
L 316.568122 51.476211 
L 316.57233 51.552 
L 319.705883 51.867 
L 321.874762 52.11648 
L 321.932931 52.202323 
L 322.889296 52.37823 
L 325.14326 52.56 
L 327.003591 52.942345 
L 328.44526 53.143579 
L 328.944083 53.246867 
L 331.079618 50.976 
L 332.256983 51.1488 
L 332.66142 51.237578 
L 333.713369 48.864 
L 336.113732 49.0752 
L 337.394754 49.376317 
L 338.793654 49.618286 
L 339.012516 49.702268 
L 341.346921 50.056258 
L 343.301048 50.648276 
L 347.278912 50.976 
L 351.074937 51.577519 
L 352.733818 51.84 
L 354.472793 52.260324 
L 354.63578 52.40811 
L 356.071174 52.716169 
L 356.174281 52.8768 
L 359.136235 53.387463 
L 359.62221 53.754092 
L 360.257511 49.788 
L 362.214807 50.3424 
L 365.739858 50.976 
L 366.252268 51.1488 
L 366.348662 51.328 
L 366.743347 51.513962 
L 368.409927 51.707077 
L 368.448693 51.907765 
L 368.636809 52.11648 
L 369.638919 52.333714 
L 370.047256 52.795915 
L 372.026838 53.042087 
L 372.303085 53.2992 
L 372.518628 47.52 
L 372.583751 47.660651 
L 373.055725 47.962537 
L 373.81756 48.1248 
L 373.863949 48.295385 
L 374.218219 48.474947 
L 375.339126 48.664216 
L 375.515772 48.864 
L 376.050082 49.0752 
L 376.212664 49.298824 
L 376.622808 49.536 
L 377.577506 49.788 
L 377.700626 50.056258 
L 379.432156 51.328 
L 380.515302 51.707077 
L 381.20626 52.56 
L 381.235867 53.042087 
L 381.38106 53.568 
L 381.423622 54.144 
L 381.85259 55.477895 
L 382.004248 56.256 
L 383.485386 57.125647 
L 383.567131 59.2128 
L 384.280522 60.48 
L 384.439479 65.664 
L 385.496486 68.0832 
L 386.051735 74.736 
L 386.307773 79.488 
L 387.049253 85.824 
L 387.617849 94.6944 
L 387.648584 108 
L 388.186246 130.176 
L 388.651325 41.472 
L 398.487273 41.472 
L 398.487273 41.472 
" style="fill:none;stroke:#0000ff;stroke-dasharray:5.55,2.4;stroke-dashoffset:0;stroke-width:1.5;"/>
   </g>
   <g id="line2d_13">
    <path clip-path="url(#p70c8caf222)" d="M 73.832727 41.472 
L 74.303 42.250105 
L 76.266806 42.250105 
L 76.288922 43.028211 
L 76.542042 43.028211 
L 76.623004 43.806316 
L 80.698269 43.806316 
L 81.232158 45.362526 
L 82.862449 45.362526 
L 82.920762 46.140632 
L 83.255066 46.918737 
L 87.852997 46.918737 
L 88.030671 47.696842 
L 88.382556 47.696842 
L 88.394024 48.474947 
L 88.948111 50.031158 
L 90.001071 50.031158 
L 90.169786 50.809263 
L 90.289759 50.809263 
L 90.452534 51.587368 
L 91.119468 51.587368 
L 91.28111 52.365474 
L 91.63989 52.365474 
L 91.687455 53.143579 
L 92.693061 53.143579 
L 92.806178 55.477895 
L 92.97564 55.477895 
L 93.133426 56.256 
L 93.96716 56.256 
L 94.275454 57.812211 
L 94.326574 57.812211 
L 94.471716 58.590316 
L 94.635022 58.590316 
L 94.811931 59.368421 
L 95.319197 59.368421 
L 95.445847 60.146526 
L 95.922717 60.146526 
L 96.386034 61.702737 
L 96.659464 61.702737 
L 96.666738 63.258947 
L 101.747345 63.258947 
L 101.777769 64.037053 
L 103.200274 64.037053 
L 103.332342 64.815158 
L 103.62209 64.815158 
L 103.693609 65.593263 
L 104.689111 65.593263 
L 104.797692 66.371368 
L 105.213109 66.371368 
L 105.358627 67.149474 
L 106.198332 67.149474 
L 106.250868 67.927579 
L 106.446468 67.927579 
L 106.644156 68.705684 
L 106.819026 68.705684 
L 106.828396 69.483789 
L 107.439147 69.483789 
L 107.507466 70.261895 
L 107.943164 70.261895 
L 108.09615 71.04 
L 108.50105 71.04 
L 108.632898 71.818105 
L 110.123345 71.818105 
L 110.576225 72.596211 
L 110.990675 72.596211 
L 111.112979 73.374316 
L 111.493288 73.374316 
L 111.672466 74.152421 
L 113.300097 74.152421 
L 113.564796 74.930526 
L 114.039435 74.930526 
L 114.533594 75.708632 
L 115.849718 76.486737 
L 116.448487 76.486737 
L 116.589975 77.264842 
L 118.232739 77.264842 
L 118.260675 78.042947 
L 121.118978 78.042947 
L 121.308937 78.821053 
L 123.023473 78.821053 
L 123.993711 79.599158 
L 124.318092 80.377263 
L 124.979001 80.377263 
L 126.445891 81.155368 
L 126.581888 81.933474 
L 129.966058 81.933474 
L 130.342557 82.711579 
L 138.735093 82.711579 
L 139.408865 83.489684 
L 139.604002 83.489684 
L 139.650869 84.267789 
L 145.299195 84.267789 
L 145.604946 85.045895 
L 146.990538 85.045895 
L 147.299147 85.824 
L 147.587629 85.824 
L 148.390893 86.602105 
L 151.387404 86.602105 
L 151.565422 87.380211 
L 152.319247 87.380211 
L 153.176065 88.158316 
L 153.26584 88.936421 
L 156.353239 88.936421 
L 156.543189 89.714526 
L 156.976648 89.714526 
L 157.623141 90.492632 
L 158.330848 91.270737 
L 159.906631 91.270737 
L 160.008168 92.048842 
L 160.189963 92.048842 
L 160.427484 92.826947 
L 160.695736 92.826947 
L 161.047624 93.605053 
L 161.847763 93.605053 
L 162.826199 94.383158 
L 163.103607 95.161263 
L 164.311094 95.161263 
L 165.56937 95.939368 
L 166.523683 96.717474 
L 166.90511 96.717474 
L 167.011003 97.495579 
L 168.656716 98.273684 
L 169.815997 98.273684 
L 170.343095 99.051789 
L 172.67276 99.051789 
L 174.578695 99.829895 
L 174.688488 99.829895 
L 175.085192 100.608 
L 175.494504 101.386105 
L 175.671197 101.386105 
L 175.945128 102.164211 
L 175.97134 102.942316 
L 176.491802 102.942316 
L 176.540928 103.720421 
L 178.563071 103.720421 
L 179.396902 104.498526 
L 180.399651 104.498526 
L 180.427926 105.276632 
L 181.671703 105.276632 
L 183.514262 106.054737 
L 183.588549 106.832842 
L 184.360711 106.832842 
L 184.568457 107.610947 
L 185.186498 107.610947 
L 185.305886 108.389053 
L 187.843319 108.389053 
L 187.971355 109.167158 
L 189.022714 109.167158 
L 189.933003 109.945263 
L 192.002936 110.723368 
L 196.366709 110.723368 
L 199.205459 111.501474 
L 205.332998 111.501474 
L 205.611457 112.279579 
L 205.737924 113.057684 
L 206.28594 113.057684 
L 206.404636 114.613895 
L 208.221234 115.392 
L 211.37307 115.392 
L 211.68972 116.170105 
L 211.797318 116.948211 
L 212.990838 116.948211 
L 213.850721 117.726316 
L 215.296648 117.726316 
L 216.596598 119.282526 
L 217.130295 119.282526 
L 217.225725 120.838737 
L 220.334374 120.838737 
L 221.053104 121.616842 
L 221.61194 121.616842 
L 221.844254 122.394947 
L 222.991385 122.394947 
L 223.118863 123.173053 
L 224.808144 123.173053 
L 225.146934 123.951158 
L 225.648573 124.729263 
L 231.243901 124.729263 
L 232.133261 125.507368 
L 232.717235 126.285474 
L 234.869746 126.285474 
L 235.070028 127.063579 
L 237.051313 127.841684 
L 238.148943 127.841684 
L 238.536674 128.619789 
L 239.531382 129.397895 
L 240.157681 129.397895 
L 240.168836 130.176 
L 241.646697 130.176 
L 241.946665 130.954105 
L 246.347204 130.954105 
L 246.500045 131.732211 
L 247.330776 131.732211 
L 247.8068 132.510316 
L 247.981946 132.510316 
L 249.069814 133.288421 
L 250.683963 134.066526 
L 251.340649 134.066526 
L 251.583939 134.844632 
L 252.124364 134.844632 
L 252.341688 135.622737 
L 252.522665 135.622737 
L 252.859051 136.400842 
L 253.893172 136.400842 
L 254.409307 137.178947 
L 254.635335 137.957053 
L 255.722826 137.957053 
L 255.829359 138.735158 
L 256.179683 139.513263 
L 256.32122 140.291368 
L 256.550537 140.291368 
L 257.767898 141.069474 
L 258.980548 141.069474 
L 260.818222 141.847579 
L 260.838191 142.625684 
L 262.95223 143.403789 
L 263.823031 144.181895 
L 264.331584 144.96 
L 265.345615 144.96 
L 266.71773 145.738105 
L 268.345605 148.072421 
L 268.695453 148.072421 
L 269.126765 148.850526 
L 270.619575 149.628632 
L 271.248826 150.406737 
L 272.224429 151.184842 
L 272.440378 151.962947 
L 272.491648 152.741053 
L 272.817991 152.741053 
L 272.981009 155.075368 
L 273.745258 155.075368 
L 274.035715 155.853474 
L 274.049373 156.631579 
L 274.345413 157.409684 
L 275.308739 157.409684 
L 275.623244 158.187789 
L 276.595183 158.965895 
L 277.043113 159.744 
L 277.177394 160.522105 
L 277.579384 161.300211 
L 278.306603 162.078316 
L 279.749318 162.078316 
L 279.88857 164.412632 
L 280.834439 166.746947 
L 283.366528 167.525053 
L 283.765421 168.303158 
L 284.312605 169.081263 
L 285.637525 169.859368 
L 285.769345 170.637474 
L 285.779891 171.415579 
L 286.453571 172.971789 
L 286.573313 173.749895 
L 287.215662 173.749895 
L 287.290175 175.306105 
L 287.718248 175.306105 
L 287.966325 176.862316 
L 288.45112 176.862316 
L 288.975225 177.640421 
L 289.240864 179.196632 
L 289.553032 179.974737 
L 290.238898 180.752842 
L 292.107708 181.530947 
L 293.646882 182.309053 
L 294.731038 183.865263 
L 296.387166 185.421474 
L 296.592311 186.199579 
L 299.51745 186.977684 
L 300.021036 187.755789 
L 300.502893 187.755789 
L 300.844641 188.533895 
L 301.702817 189.312 
L 301.843818 190.090105 
L 301.84489 190.868211 
L 303.751861 191.646316 
L 304.585447 191.646316 
L 304.921424 193.202526 
L 304.97702 193.980632 
L 306.417383 195.536842 
L 306.566848 196.314947 
L 306.602057 197.093053 
L 306.764146 197.093053 
L 306.7823 197.871158 
L 308.382771 198.649263 
L 309.591225 200.205474 
L 309.789568 200.205474 
L 310.038967 201.761684 
L 311.110535 203.317895 
L 311.17958 203.317895 
L 311.701916 204.096 
L 312.568338 204.874105 
L 312.596153 205.652211 
L 313.001586 206.430316 
L 316.201043 206.430316 
L 316.468164 207.208421 
L 316.57233 208.764632 
L 317.680897 209.542737 
L 318.429956 210.320842 
L 319.494064 211.098947 
L 319.705883 211.877053 
L 320.63551 212.655158 
L 321.874762 214.211368 
L 321.932931 214.989474 
L 322.572189 215.767579 
L 322.889296 216.545684 
L 324.992449 217.323789 
L 325.14326 218.101895 
L 325.626564 218.88 
L 325.714189 219.658105 
L 326.536887 220.436211 
L 327.003591 221.214316 
L 328.242888 221.992421 
L 328.44526 222.770526 
L 328.944083 223.548632 
L 331.079618 223.548632 
L 332.038682 224.326737 
L 332.256983 225.104842 
L 332.66142 225.882947 
L 333.713369 225.882947 
L 335.302473 226.661053 
L 335.506723 227.439158 
L 336.113732 228.217263 
L 336.388717 228.995368 
L 337.070804 229.773474 
L 337.360453 230.551579 
L 337.394754 231.329684 
L 338.67331 232.885895 
L 339.012516 234.442105 
L 340.44986 235.998316 
L 340.560126 236.776421 
L 341.346921 237.554526 
L 341.690833 238.332632 
L 341.868061 239.110737 
L 342.484319 239.888842 
L 342.534734 240.666947 
L 343.181645 241.445053 
L 343.301048 242.223158 
L 346.793963 243.779368 
L 347.278912 244.557474 
L 347.94277 245.335579 
L 348.96053 246.113684 
L 349.437934 246.891789 
L 350.14654 247.669895 
L 351.074937 248.448 
L 352.41318 249.226105 
L 352.733818 250.004211 
L 353.339072 250.782316 
L 354.209043 251.560421 
L 354.63578 253.116632 
L 356.071174 254.672842 
L 356.174281 255.450947 
L 357.189408 256.229053 
L 357.641088 257.007158 
L 359.136235 257.785263 
L 359.62221 259.341474 
L 360.257511 259.341474 
L 360.697271 260.119579 
L 360.775874 260.897684 
L 361.894897 261.675789 
L 362.214807 262.453895 
L 364.257941 264.010105 
L 365.532139 264.788211 
L 365.739858 265.566316 
L 366.252268 266.344421 
L 366.348662 267.122526 
L 366.743347 267.900632 
L 368.409927 268.678737 
L 368.448693 269.456842 
L 368.636809 270.234947 
L 369.638919 271.013053 
L 370.047256 272.569263 
L 372.026838 273.347368 
L 372.303085 274.125474 
L 372.518628 274.125474 
L 372.583751 274.903579 
L 373.055725 276.459789 
L 373.81756 277.237895 
L 373.863949 278.016 
L 374.218219 278.794105 
L 375.339126 279.572211 
L 375.515772 280.350316 
L 376.050082 281.128421 
L 376.212664 281.906526 
L 376.622808 282.684632 
L 377.577506 283.462737 
L 377.700626 284.240842 
L 378.890868 286.575158 
L 379.432156 287.353263 
L 380.515302 288.131368 
L 381.20626 289.687579 
L 381.235867 290.465684 
L 382.004248 294.356211 
L 383.485386 295.134316 
L 383.567131 296.690526 
L 384.280522 297.468632 
L 384.439479 299.802947 
L 385.496486 300.581053 
L 386.307773 302.915368 
L 387.049253 303.693474 
L 387.617849 304.471579 
L 387.648584 305.249684 
L 388.186246 306.027789 
L 388.651325 306.027789 
L 398.487273 306.805895 
L 398.487273 306.805895 
" style="fill:none;stroke:#008000;stroke-linecap:square;stroke-width:1.5;"/>
   </g>
   <g id="patch_3">
    <path d="M 57.6 307.584 
L 57.6 41.472 
" style="fill:none;stroke:#000000;stroke-linecap:square;stroke-linejoin:miter;stroke-width:0.8;"/>
   </g>
   <g id="patch_4">
    <path d="M 414.72 307.584 
L 414.72 41.472 
" style="fill:none;stroke:#000000;stroke-linecap:square;stroke-linejoin:miter;stroke-width:0.8;"/>
   </g>
   <g id="patch_5">
    <path d="M 57.6 307.584 
L 414.72 307.584 
" style="fill:none;stroke:#000000;stroke-linecap:square;stroke-linejoin:miter;stroke-width:0.8;"/>
   </g>
   <g id="patch_6">
    <path d="M 57.6 41.472 
L 414.72 41.472 
" style="fill:none;stroke:#000000;stroke-linecap:square;stroke-linejoin:miter;stroke-width:0.8;"/>
   </g>
   <g id="text_13">
    <!-- Precision vs. Recall -->
    <defs>
     <path d="M 19.671875 64.796875 
L 19.671875 37.40625 
L 32.078125 37.40625 
Q 38.96875 37.40625 42.71875 40.96875 
Q 46.484375 44.53125 46.484375 51.125 
Q 46.484375 57.671875 42.71875 61.234375 
Q 38.96875 64.796875 32.078125 64.796875 
z
M 9.8125 72.90625 
L 32.078125 72.90625 
Q 44.34375 72.90625 50.609375 67.359375 
Q 56.890625 61.8125 56.890625 51.125 
Q 56.890625 40.328125 50.609375 34.8125 
Q 44.34375 29.296875 32.078125 29.296875 
L 19.671875 29.296875 
L 19.671875 0 
L 9.8125 0 
z
" id="DejaVuSans-80"/>
     <path d="M 48.78125 52.59375 
L 48.78125 44.1875 
Q 44.96875 46.296875 41.140625 47.34375 
Q 37.3125 48.390625 33.40625 48.390625 
Q 24.65625 48.390625 19.8125 42.84375 
Q 14.984375 37.3125 14.984375 27.296875 
Q 14.984375 17.28125 19.8125 11.734375 
Q 24.65625 6.203125 33.40625 6.203125 
Q 37.3125 6.203125 41.140625 7.25 
Q 44.96875 8.296875 48.78125 10.40625 
L 48.78125 2.09375 
Q 45.015625 0.34375 40.984375 -0.53125 
Q 36.96875 -1.421875 32.421875 -1.421875 
Q 20.0625 -1.421875 12.78125 6.34375 
Q 5.515625 14.109375 5.515625 27.296875 
Q 5.515625 40.671875 12.859375 48.328125 
Q 20.21875 56 33.015625 56 
Q 37.15625 56 41.109375 55.140625 
Q 45.0625 54.296875 48.78125 52.59375 
z
" id="DejaVuSans-99"/>
     <path d="M 9.421875 54.6875 
L 18.40625 54.6875 
L 18.40625 0 
L 9.421875 0 
z
M 9.421875 75.984375 
L 18.40625 75.984375 
L 18.40625 64.59375 
L 9.421875 64.59375 
z
" id="DejaVuSans-105"/>
     <path d="M 54.890625 33.015625 
L 54.890625 0 
L 45.90625 0 
L 45.90625 32.71875 
Q 45.90625 40.484375 42.875 44.328125 
Q 39.84375 48.1875 33.796875 48.1875 
Q 26.515625 48.1875 22.3125 43.546875 
Q 18.109375 38.921875 18.109375 30.90625 
L 18.109375 0 
L 9.078125 0 
L 9.078125 54.6875 
L 18.109375 54.6875 
L 18.109375 46.1875 
Q 21.34375 51.125 25.703125 53.5625 
Q 30.078125 56 35.796875 56 
Q 45.21875 56 50.046875 50.171875 
Q 54.890625 44.34375 54.890625 33.015625 
z
" id="DejaVuSans-110"/>
     <path id="DejaVuSans-32"/>
     <path d="M 2.984375 54.6875 
L 12.5 54.6875 
L 29.59375 8.796875 
L 46.6875 54.6875 
L 56.203125 54.6875 
L 35.6875 0 
L 23.484375 0 
z
" id="DejaVuSans-118"/>
     <path d="M 44.390625 34.1875 
Q 47.5625 33.109375 50.5625 29.59375 
Q 53.5625 26.078125 56.59375 19.921875 
L 66.609375 0 
L 56 0 
L 46.6875 18.703125 
Q 43.0625 26.03125 39.671875 28.421875 
Q 36.28125 30.8125 30.421875 30.8125 
L 19.671875 30.8125 
L 19.671875 0 
L 9.8125 0 
L 9.8125 72.90625 
L 32.078125 72.90625 
Q 44.578125 72.90625 50.734375 67.671875 
Q 56.890625 62.453125 56.890625 51.90625 
Q 56.890625 45.015625 53.6875 40.46875 
Q 50.484375 35.9375 44.390625 34.1875 
z
M 19.671875 64.796875 
L 19.671875 38.921875 
L 32.078125 38.921875 
Q 39.203125 38.921875 42.84375 42.21875 
Q 46.484375 45.515625 46.484375 51.90625 
Q 46.484375 58.296875 42.84375 61.546875 
Q 39.203125 64.796875 32.078125 64.796875 
z
" id="DejaVuSans-82"/>
     <path d="M 34.28125 27.484375 
Q 23.390625 27.484375 19.1875 25 
Q 14.984375 22.515625 14.984375 16.5 
Q 14.984375 11.71875 18.140625 8.90625 
Q 21.296875 6.109375 26.703125 6.109375 
Q 34.1875 6.109375 38.703125 11.40625 
Q 43.21875 16.703125 43.21875 25.484375 
L 43.21875 27.484375 
z
M 52.203125 31.203125 
L 52.203125 0 
L 43.21875 0 
L 43.21875 8.296875 
Q 40.140625 3.328125 35.546875 0.953125 
Q 30.953125 -1.421875 24.3125 -1.421875 
Q 15.921875 -1.421875 10.953125 3.296875 
Q 6 8.015625 6 15.921875 
Q 6 25.140625 12.171875 29.828125 
Q 18.359375 34.515625 30.609375 34.515625 
L 43.21875 34.515625 
L 43.21875 35.40625 
Q 43.21875 41.609375 39.140625 45 
Q 35.0625 48.390625 27.6875 48.390625 
Q 23 48.390625 18.546875 47.265625 
Q 14.109375 46.140625 10.015625 43.890625 
L 10.015625 52.203125 
Q 14.9375 54.109375 19.578125 55.046875 
Q 24.21875 56 28.609375 56 
Q 40.484375 56 46.34375 49.84375 
Q 52.203125 43.703125 52.203125 31.203125 
z
" id="DejaVuSans-97"/>
    </defs>
    <g transform="translate(178.59 35.472)scale(0.12 -0.12)">
     <use xlink:href="#DejaVuSans-80"/>
     <use x="60.287109" xlink:href="#DejaVuSans-114"/>
     <use x="101.369141" xlink:href="#DejaVuSans-101"/>
     <use x="162.892578" xlink:href="#DejaVuSans-99"/>
     <use x="217.873047" xlink:href="#DejaVuSans-105"/>
     <use x="245.65625" xlink:href="#DejaVuSans-115"/>
     <use x="297.755859" xlink:href="#DejaVuSans-105"/>
     <use x="325.539062" xlink:href="#DejaVuSans-111"/>
     <use x="386.720703" xlink:href="#DejaVuSans-110"/>
     <use x="450.099609" xlink:href="#DejaVuSans-32"/>
     <use x="481.886719" xlink:href="#DejaVuSans-118"/>
     <use x="541.066406" xlink:href="#DejaVuSans-115"/>
     <use x="593.166016" xlink:href="#DejaVuSans-46"/>
     <use x="624.953125" xlink:href="#DejaVuSans-32"/>
     <use x="656.740234" xlink:href="#DejaVuSans-82"/>
     <use x="726.160156" xlink:href="#DejaVuSans-101"/>
     <use x="787.683594" xlink:href="#DejaVuSans-99"/>
     <use x="842.664062" xlink:href="#DejaVuSans-97"/>
     <use x="903.943359" xlink:href="#DejaVuSans-108"/>
     <use x="931.726562" xlink:href="#DejaVuSans-108"/>
    </g>
   </g>
   <g id="legend_1">
    <g id="patch_7">
     <path d="M 64.6 302.584 
L 141.609375 302.584 
Q 143.609375 302.584 143.609375 300.584 
L 143.609375 272.22775 
Q 143.609375 270.22775 141.609375 270.22775 
L 64.6 270.22775 
Q 62.6 270.22775 62.6 272.22775 
L 62.6 300.584 
Q 62.6 302.584 64.6 302.584 
z
" style="fill:#ffffff;opacity:0.8;stroke:#cccccc;stroke-linejoin:miter;"/>
    </g>
    <g id="line2d_14">
     <path d="M 66.6 278.326187 
L 86.6 278.326187 
" style="fill:none;stroke:#0000ff;stroke-dasharray:5.55,2.4;stroke-dashoffset:0;stroke-width:1.5;"/>
    </g>
    <g id="line2d_15"/>
    <g id="text_14">
     <!-- Precision -->
     <g transform="translate(94.6 281.826187)scale(0.1 -0.1)">
      <use xlink:href="#DejaVuSans-80"/>
      <use x="60.287109" xlink:href="#DejaVuSans-114"/>
      <use x="101.369141" xlink:href="#DejaVuSans-101"/>
      <use x="162.892578" xlink:href="#DejaVuSans-99"/>
      <use x="217.873047" xlink:href="#DejaVuSans-105"/>
      <use x="245.65625" xlink:href="#DejaVuSans-115"/>
      <use x="297.755859" xlink:href="#DejaVuSans-105"/>
      <use x="325.539062" xlink:href="#DejaVuSans-111"/>
      <use x="386.720703" xlink:href="#DejaVuSans-110"/>
     </g>
    </g>
    <g id="line2d_16">
     <path d="M 66.6 293.004312 
L 86.6 293.004312 
" style="fill:none;stroke:#008000;stroke-linecap:square;stroke-width:1.5;"/>
    </g>
    <g id="line2d_17"/>
    <g id="text_15">
     <!-- Recall -->
     <g transform="translate(94.6 296.504312)scale(0.1 -0.1)">
      <use xlink:href="#DejaVuSans-82"/>
      <use x="69.419922" xlink:href="#DejaVuSans-101"/>
      <use x="130.943359" xlink:href="#DejaVuSans-99"/>
      <use x="185.923828" xlink:href="#DejaVuSans-97"/>
      <use x="247.203125" xlink:href="#DejaVuSans-108"/>
      <use x="274.986328" xlink:href="#DejaVuSans-108"/>
     </g>
    </g>
   </g>
  </g>
 </g>
 <defs>
  <clipPath id="p70c8caf222">
   <rect height="266.112" width="357.12" x="57.6" y="41.472"/>
  </clipPath>
 </defs>
</svg>
